<?xml version="1.0" standalone="no"?>
<!DOCTYPE svg PUBLIC "-//W3C//DTD SVG 20010904//EN"
 "http://www.w3.org/TR/2001/REC-SVG-20010904/DTD/svg10.dtd">
<svg version="1.0" xmlns="http://www.w3.org/2000/svg"
 width="2000.000000pt" height="1276.000000pt" viewBox="0 0 2000.000000 1276.000000"
 preserveAspectRatio="xMidYMid meet">

<g transform="translate(0.000000,1276.000000) scale(0.100000,-0.100000)"
fill="#000000" stroke="none">
<path d="M0 6380 l0 -6380 10000 0 10000 0 0 6380 0 6380 -10000 0 -10000 0 0
-6380z m2600 4448 c19 -6 55 -24 79 -40 29 -19 47 -26 54 -19 6 6 14 5 23 -4
11 -10 22 -11 46 -4 44 12 38 14 86 -31 35 -32 48 -38 71 -34 16 3 38 1 51 -6
24 -13 43 -4 20 10 -8 5 -11 13 -6 17 5 4 11 2 14 -6 2 -7 15 -23 28 -34 14
-12 22 -27 20 -34 -9 -22 15 -73 34 -73 10 0 20 4 22 10 5 14 92 -48 102 -73
l9 -22 4 23 c5 23 23 31 23 9 0 -7 16 -28 35 -47 20 -19 35 -41 34 -50 -1 -8
4 -31 11 -50 8 -19 14 -37 14 -40 0 -7 13 -19 64 -58 23 -19 42 -38 42 -43 0
-14 -22 -11 -42 8 -22 20 -36 10 -17 -13 7 -9 22 -39 34 -68 15 -39 26 -52 44
-54 23 -4 23 -3 7 14 -31 31 -50 98 -20 73 36 -30 67 -124 33 -104 -11 7 -11
1 0 -47 5 -21 8 -38 6 -38 -8 0 -40 37 -41 48 -1 6 -2 18 -2 25 -2 17 -52 42
-52 26 0 -6 8 -23 18 -37 26 -37 35 -63 33 -89 -1 -11 3 -24 8 -28 6 -3 11
-11 11 -18 0 -6 -16 6 -35 26 -28 30 -35 33 -35 18 0 -11 9 -23 20 -26 11 -3
23 -17 26 -31 3 -13 10 -24 16 -24 5 0 8 -9 6 -19 -3 -19 35 -61 56 -61 24 -1
48 -28 39 -45 -8 -14 -11 -14 -28 5 -10 11 -28 20 -40 20 -13 0 -28 7 -35 15
-7 8 -19 15 -26 15 -24 0 -15 -25 16 -44 39 -23 80 -67 80 -86 0 -8 9 -29 19
-47 24 -38 18 -70 -18 -100 -20 -17 -22 -22 -10 -23 9 0 22 -13 29 -30 13 -32
25 -38 33 -17 2 6 8 9 12 5 4 -4 3 -14 -4 -22 -7 -8 -9 -25 -5 -40 3 -15 2
-32 -4 -39 -7 -8 -5 -18 6 -32 20 -24 59 -27 54 -5 -2 10 0 11 6 5 15 -17 42
-138 28 -125 -7 5 -16 7 -19 3 -4 -3 -7 1 -7 10 0 20 -11 22 -28 5 -9 -9 -12
-7 -13 13 0 15 -3 18 -6 9 -3 -8 -11 -18 -17 -22 -7 -4 -4 -13 7 -26 13 -14
14 -21 4 -31 -9 -10 -9 -15 0 -18 7 -2 9 -11 6 -19 -6 -15 15 -74 26 -74 9 0
41 -72 41 -92 0 -9 7 -21 15 -28 11 -9 15 -9 15 -1 0 7 5 9 10 6 6 -3 10 -13
10 -21 0 -12 -7 -14 -30 -9 -25 5 -29 4 -24 -9 5 -14 14 -18 34 -18 3 0 15 3
28 7 23 7 23 7 7 -31 -9 -21 -18 -40 -21 -43 -8 -9 -23 21 -17 35 7 20 -47 39
-60 22 -6 -9 -7 -8 -3 5 4 11 0 20 -11 24 -10 4 -30 19 -45 35 -31 32 -38 34
-38 13 0 -8 3 -15 8 -15 4 0 20 -10 35 -23 20 -15 26 -27 22 -39 -6 -16 -11
-14 -38 15 -18 19 -32 27 -34 20 -6 -18 15 -53 32 -53 20 0 19 -15 -2 -46 -13
-21 -14 -25 -2 -24 28 4 49 0 49 -11 0 -6 -8 -8 -20 -4 -15 5 -21 0 -26 -19
-3 -14 -13 -26 -22 -26 -12 0 -11 -5 6 -23 12 -13 22 -32 22 -42 0 -11 10 -28
23 -40 12 -11 18 -17 13 -12 -18 13 -33 7 -50 -17 -17 -27 -12 -56 10 -56 16
0 37 -46 28 -61 -3 -5 5 -10 18 -10 18 -1 19 -2 5 -6 -13 -3 -16 -10 -12 -21
23 -55 19 -60 -32 -42 l-28 10 24 -20 c18 -15 22 -27 19 -52 -3 -20 1 -37 11
-47 11 -11 16 -34 16 -68 0 -33 5 -55 13 -58 6 -2 12 -9 12 -15 0 -6 -7 -6
-20 2 -22 14 -36 6 -24 -14 10 -16 12 -68 2 -68 -14 0 -19 21 -8 35 8 10 8 15
0 20 -15 9 -19 5 -26 -32 -5 -25 -2 -33 15 -42 14 -8 21 -8 21 -1 0 5 5 10 10
10 18 0 11 -18 -10 -25 -15 -5 -18 -12 -13 -35 4 -21 -1 -37 -16 -56 -20 -26
-20 -44 0 -44 6 0 7 5 4 10 -3 6 -2 10 3 10 13 0 22 -39 11 -46 -6 -3 -5 -12
3 -22 11 -13 10 -15 -9 -10 -13 4 -25 2 -28 -2 -9 -15 55 -100 76 -100 20 0
27 -26 8 -32 -9 -3 -9 -13 0 -41 12 -36 19 -41 51 -38 27 2 43 -16 44 -50 1
-26 6 -34 28 -40 28 -7 80 -49 61 -49 -6 0 -16 7 -23 15 -22 26 -32 16 -11
-11 11 -15 18 -30 16 -35 -3 -4 3 -13 14 -19 22 -11 18 -40 -5 -40 -8 0 -13 3
-12 8 1 4 -3 18 -10 32 -6 14 -16 40 -24 58 -7 17 -17 32 -23 33 -5 0 -20 2
-32 3 -26 3 -32 -11 -7 -16 8 -2 24 -23 35 -47 17 -40 18 -43 1 -36 -9 4 -26
9 -37 12 -18 4 -18 3 3 -13 14 -11 22 -27 22 -46 0 -21 6 -31 20 -35 21 -6 28
-23 9 -23 -24 0 -50 23 -70 61 -17 34 -19 46 -9 69 9 21 8 34 -4 61 -8 19 -17
47 -21 62 -4 20 -16 32 -38 42 -25 10 -35 23 -46 59 -13 45 -36 75 -48 62 -3
-3 1 -14 10 -24 10 -10 17 -32 17 -49 0 -41 9 -63 26 -63 8 0 14 -9 14 -19 0
-21 39 -74 40 -53 0 24 18 11 22 -17 2 -17 1 -28 -4 -25 -4 3 -9 0 -9 -5 -6
-49 -3 -79 9 -93 9 -11 12 -27 8 -42 -3 -14 -2 -28 4 -31 15 -9 12 -25 -4 -19
-10 4 -13 -3 -11 -28 2 -18 4 -33 5 -33 1 0 3 -8 5 -18 2 -10 11 -29 20 -43 9
-14 14 -28 11 -31 -8 -8 -36 17 -33 29 1 6 -8 12 -20 14 -13 2 -23 -1 -23 -6
0 -6 7 -10 15 -10 8 0 15 -7 15 -15 0 -8 11 -17 25 -21 30 -7 34 -30 5 -30
-11 0 -20 4 -20 8 0 4 -5 8 -10 8 -6 0 -24 10 -40 22 -41 30 -49 15 -13 -25
30 -34 50 -98 38 -118 -4 -6 1 -19 10 -29 13 -15 14 -22 4 -38 -7 -11 -9 -27
-4 -38 4 -11 7 -38 7 -61 0 -24 4 -43 9 -43 9 0 13 14 10 38 -1 6 3 12 9 12 5
0 11 -6 12 -12 0 -7 2 -17 3 -23 2 -5 3 -15 4 -21 0 -6 13 -16 28 -23 15 -7
22 -15 17 -19 -18 -12 -23 -38 -14 -77 7 -29 6 -35 -6 -31 -8 3 -14 1 -14 -4
0 -20 -20 -9 -33 18 -16 31 -12 53 9 45 8 -3 14 -1 14 3 -1 17 -25 41 -48 48
-15 5 -22 15 -22 32 0 15 -6 24 -15 24 -9 0 -19 8 -22 17 -6 15 -7 15 -14 -3
-7 -18 -8 -18 -14 3 -4 12 -13 24 -20 27 -26 10 5 -51 32 -63 18 -9 24 -17 20
-32 -4 -13 2 -28 16 -42 20 -20 22 -20 25 -4 7 33 18 17 18 -25 0 -56 9 -78
34 -78 11 0 20 -4 20 -10 0 -5 -8 -7 -17 -4 -15 5 -15 3 2 -10 19 -16 19 -18
4 -61 -9 -25 -13 -45 -9 -45 16 0 33 32 33 61 0 16 4 29 8 29 11 0 19 -28 19
-63 0 -26 -6 -35 -30 -45 -18 -8 -30 -21 -30 -33 0 -10 -4 -19 -10 -19 -5 0
-10 9 -10 19 0 24 -16 36 -25 20 -4 -6 -9 -40 -11 -75 -3 -50 -1 -66 11 -70
16 -7 48 -64 40 -72 -3 -3 -11 0 -17 6 -18 18 -28 15 -28 -9 0 -12 -4 -17 -11
-13 -6 3 -8 17 -4 31 5 20 3 24 -9 20 -9 -4 -16 -2 -16 3 0 5 8 11 18 13 13 4
11 5 -5 6 -13 0 -23 6 -23 11 0 6 -5 10 -11 10 -5 0 -8 -4 -4 -9 3 -5 1 -12
-4 -16 -14 -8 -2 -35 15 -35 8 0 14 -9 14 -20 0 -11 7 -21 15 -21 8 -1 20 -2
27 -3 6 0 13 -7 16 -14 2 -8 -2 -10 -13 -6 -12 5 -16 2 -13 -11 2 -11 -6 -21
-19 -26 -21 -7 -22 -6 -16 21 4 23 2 30 -10 30 -8 0 -14 -7 -13 -16 0 -9 -5
-19 -13 -22 -9 -3 -12 0 -8 10 7 20 -11 38 -37 38 -19 -1 -19 -1 -3 -11 9 -5
17 -17 17 -25 0 -8 11 -19 25 -24 13 -5 30 -18 37 -30 7 -11 21 -20 30 -20 10
0 15 -5 12 -13 -3 -8 2 -19 10 -26 14 -12 14 -15 0 -28 -14 -14 -13 -18 6 -38
18 -19 19 -23 5 -35 -18 -15 -45 -6 -45 15 0 8 -4 15 -10 15 -15 0 -12 -16 5
-34 20 -20 19 -26 -5 -26 -11 0 -20 -3 -20 -6 0 -15 45 -84 58 -89 23 -9 27 3
9 23 -27 30 -18 59 10 31 11 -11 14 -7 27 54 4 15 2 36 -4 47 -7 13 -7 20 -1
20 26 0 44 -87 23 -112 -7 -9 -13 -36 -14 -60 -2 -38 -5 -44 -20 -40 -10 2
-18 8 -18 13 0 5 -5 9 -12 9 -16 0 2 -18 33 -34 30 -15 35 -33 10 -41 -28 -9
-61 11 -62 38 -1 17 -2 18 -6 5 -2 -10 -9 -18 -14 -18 -5 0 -9 -11 -9 -24 0
-20 -26 -56 -33 -45 -1 2 -9 17 -17 33 -8 16 -21 31 -30 34 -8 3 -18 10 -21
15 -8 12 -39 2 -39 -12 0 -6 6 -8 14 -5 18 7 51 -27 84 -85 13 -22 12 -23 -17
-16 -24 5 -31 3 -31 -9 0 -9 7 -16 15 -16 8 0 15 -7 15 -15 0 -45 55 12 70 73
15 57 19 61 42 35 23 -27 30 -60 18 -83 -8 -16 -8 -20 3 -20 16 0 43 -28 35
-36 -3 -3 -13 2 -21 11 -22 21 -37 19 -37 -6 0 -12 -7 -37 -16 -56 -19 -39 -7
-66 19 -45 20 17 27 4 16 -26 -7 -18 -7 -28 0 -30 6 -2 11 -8 11 -14 0 -6 -9
-3 -20 7 -11 10 -20 13 -20 7 0 -6 -7 -9 -15 -6 -20 8 -20 -20 0 -36 12 -10
15 -32 13 -98 -2 -78 -1 -86 21 -103 13 -11 18 -19 12 -19 -6 0 -11 -7 -11
-15 0 -8 6 -15 13 -15 8 0 24 -9 37 -20 12 -11 27 -17 33 -13 5 3 7 1 4 -4 -4
-6 0 -13 8 -17 8 -3 15 -11 15 -17 0 -8 -4 -8 -15 1 -23 19 -29 5 -10 -24 l17
-25 -26 12 c-18 8 -26 20 -26 37 0 36 -13 51 -45 53 -20 2 -29 8 -31 22 -2 11
-16 31 -31 44 -26 22 -28 23 -32 6 -2 -10 5 -24 14 -31 9 -7 14 -17 11 -22 -3
-5 -1 -23 3 -40 7 -23 6 -34 -5 -43 -13 -10 -12 -15 3 -32 13 -15 15 -21 5
-24 -6 -3 -9 -9 -6 -15 4 -6 1 -14 -5 -18 -9 -5 -2 -15 20 -34 39 -33 33 -42
-16 -22 -45 19 -61 12 -35 -14 16 -16 19 -31 17 -75 -1 -30 -5 -55 -9 -55 -4
0 -3 -13 2 -30 8 -28 6 -30 -23 -38 l-31 -8 35 -22 c33 -20 59 -57 59 -83 0
-6 9 -24 20 -39 29 -41 2 -46 -33 -6 l-28 31 7 -58 c4 -40 2 -62 -6 -72 -15
-18 -13 -20 18 -29 21 -7 30 3 15 18 -11 10 -14 46 -4 46 5 0 12 -10 15 -23 7
-22 7 -22 15 -2 5 12 15 26 24 33 12 11 13 7 7 -29 -11 -57 -4 -74 41 -104 38
-25 39 -26 23 -50 -16 -25 -34 -33 -34 -16 0 18 -39 7 -44 -13 -5 -20 -6 -20
-24 2 -23 26 -32 28 -32 7 0 -8 -5 -15 -11 -15 -16 0 -41 -29 -34 -40 3 -5 13
-10 21 -10 8 0 12 -4 9 -10 -3 -5 1 -10 9 -10 19 0 21 31 4 48 -9 9 -8 12 5
12 9 0 24 -14 32 -30 14 -27 14 -31 1 -36 -13 -5 -13 -8 -2 -20 17 -16 10 -54
-10 -54 -21 0 -17 -38 5 -50 28 -15 34 -13 28 10 -3 10 1 27 8 37 13 17 14 16
24 -11 7 -18 8 -33 2 -40 -5 -6 -17 -31 -27 -56 -10 -25 -22 -48 -28 -52 -6
-4 1 -11 15 -17 15 -5 29 -19 32 -30 3 -12 12 -21 20 -21 12 0 15 -9 12 -40
-3 -29 1 -42 12 -49 14 -7 13 -10 -5 -15 -17 -6 -20 -13 -15 -37 8 -43 -13
-36 -23 8 -4 21 -7 46 -6 56 1 10 -5 17 -16 18 -15 0 -15 1 -1 7 14 6 14 11 2
40 -13 31 -41 48 -29 17 7 -19 -5 -19 -30 0 -18 14 -18 14 0 15 15 0 16 3 6
15 -7 8 -19 15 -26 15 -19 0 -18 29 1 36 10 4 12 10 6 18 -8 10 -16 63 -11 76
1 3 3 13 5 22 3 15 0 16 -16 7 -25 -13 -35 -37 -22 -50 6 -6 6 -33 1 -71 -9
-65 6 -108 37 -108 8 0 15 -5 15 -11 0 -6 -7 -9 -15 -5 -8 3 -15 2 -15 -3 0
-13 36 -42 43 -34 4 3 7 2 7 -4 0 -6 -8 -14 -17 -18 -16 -6 -16 -7 -2 -15 11
-6 15 -18 11 -35 -2 -15 0 -25 7 -25 6 0 11 -11 11 -25 0 -15 6 -38 14 -53 7
-15 16 -42 19 -60 6 -30 5 -32 -12 -22 -18 9 -35 58 -48 138 -3 18 -9 35 -14
38 -5 3 -9 14 -9 24 0 10 -5 22 -12 26 -7 4 -8 3 -4 -4 4 -7 2 -12 -3 -12 -16
0 -13 -30 4 -64 19 -36 19 -76 1 -76 -9 0 -12 -7 -9 -21 4 -12 0 -25 -8 -29
-11 -7 -11 -12 1 -27 40 -48 50 -92 15 -63 -23 19 -19 -6 5 -30 25 -25 30 -25
30 0 0 11 5 20 10 20 18 0 10 19 -11 25 -15 5 -18 10 -10 18 8 8 17 6 32 -9
18 -18 19 -24 7 -50 -7 -16 -20 -37 -29 -47 -16 -18 -17 -18 -34 5 -13 16 -16
18 -11 5 3 -10 6 -30 6 -43 0 -17 6 -24 20 -24 11 0 20 -1 20 -2 1 -2 7 -39
15 -83 20 -109 19 -115 -7 -114 -17 1 -19 2 -5 6 22 6 22 6 -9 60 -17 31 -24
57 -22 82 2 29 -1 36 -17 39 -11 3 -23 9 -26 14 -10 15 -49 -1 -49 -19 0 -9
-6 -24 -14 -32 -16 -19 -29 -81 -17 -81 5 0 12 13 16 30 4 16 11 33 16 36 6 3
14 17 19 30 12 32 21 30 42 -6 14 -25 15 -30 3 -30 -8 0 -15 -8 -15 -19 0 -12
7 -18 18 -17 11 1 17 -6 17 -22 0 -12 7 -27 15 -32 8 -5 11 -12 8 -15 -7 -7
-71 24 -76 38 -14 29 -44 -37 -35 -75 4 -13 23 -39 45 -59 37 -35 48 -64 28
-71 -6 -2 -12 -14 -14 -28 -4 -39 -16 -59 -32 -53 -8 3 -21 0 -28 -6 -17 -14
-6 -63 19 -91 16 -17 13 -41 -9 -69 -6 -7 -11 -29 -12 -47 0 -19 -8 -42 -17
-52 -10 -10 -17 -25 -17 -33 1 -10 3 -9 11 3 13 23 44 24 35 2 -3 -9 -6 -23
-6 -32 0 -12 -3 -13 -12 -4 -17 17 -29 15 -26 -5 2 -12 -4 -18 -17 -18 -15 0
-21 -8 -23 -32 -2 -19 1 -33 8 -33 6 0 8 -10 4 -25 -4 -15 -2 -25 5 -25 6 0 8
-7 5 -15 -4 -8 -12 -15 -20 -15 -22 0 -33 -33 -24 -74 6 -29 5 -36 -5 -32 -8
3 -16 -5 -19 -20 -4 -13 -13 -24 -22 -24 -8 0 -12 4 -9 10 10 17 17 73 15 138
0 34 4 72 11 83 6 12 12 42 12 68 1 25 6 49 11 52 5 4 6 22 2 41 -5 30 -10 35
-30 31 -22 -5 -23 -8 -22 -93 1 -68 -3 -92 -15 -106 -9 -11 -19 -31 -23 -46
-5 -22 -3 -28 10 -28 12 0 15 -6 10 -23 -3 -12 -6 -27 -6 -33 0 -6 -11 -10
-24 -9 -17 2 -26 -3 -30 -18 -6 -24 2 -37 12 -20 11 17 36 -2 29 -21 -4 -9
-16 -16 -28 -16 -13 0 -23 -8 -26 -21 -4 -14 -10 -18 -22 -13 -9 4 -32 9 -52
12 -28 3 -36 0 -36 -12 0 -19 2 -19 28 -6 11 6 19 7 19 2 0 -6 -9 -12 -21 -15
-26 -7 -16 -27 14 -27 17 0 19 -2 7 -9 -8 -6 -18 -7 -22 -4 -11 6 -38 -15 -38
-29 0 -6 9 -8 20 -5 11 3 23 1 26 -4 8 -13 41 -11 47 3 3 7 20 22 38 32 l34
19 -35 -34 c-60 -59 -64 -61 -96 -44 -16 8 -43 15 -61 15 -17 0 -33 4 -35 10
-1 5 -9 6 -16 1 -25 -15 -3 -39 31 -34 24 3 29 2 21 -7 -6 -6 -24 -13 -40 -16
-42 -7 -54 -12 -54 -23 0 -6 7 -8 15 -5 25 10 17 -12 -10 -26 -14 -7 -25 -17
-25 -21 0 -4 -21 -11 -47 -15 -27 -3 -55 -14 -64 -23 -16 -17 -54 -19 -105 -7
-18 5 -43 -3 -90 -30 -46 -26 -81 -37 -123 -41 -95 -9 -124 1 -189 65 -83 82
-112 170 -132 402 -9 110 -15 7806 -6 7875 3 17 7 73 10 125 10 156 31 240 79
309 78 114 172 148 297 109z m467 -65 c15 -22 14 -22 -19 -10 -43 15 -41 14
-33 27 10 16 36 8 52 -17z m14477 -40 c8 -50 8 -8621 0 -8662 -8 -41 -26 -40
-95 7 -89 60 -97 67 -109 96 -6 16 -11 132 -12 274 -1 136 -4 202 -5 147 -4
-113 -9 -138 -23 -115 -8 12 -10 12 -10 -4 0 -16 -3 -15 -20 7 -24 31 -25 38
-4 30 14 -5 15 -3 5 15 -7 12 -16 22 -22 22 -6 0 -7 -4 -4 -10 3 -5 2 -10 -3
-10 -6 0 -12 7 -16 15 -3 8 -13 15 -22 15 -17 0 -54 27 -54 39 0 10 44 8 51
-2 4 -5 10 1 14 14 4 13 4 25 -1 26 -31 11 -38 22 -25 37 12 14 10 16 -13 16
-30 0 -66 16 -66 29 0 5 12 6 28 3 24 -5 26 -4 13 11 -7 10 -21 17 -30 17 -9
0 -22 4 -29 9 -10 6 -9 10 7 14 13 3 19 1 15 -5 -4 -6 1 -8 11 -6 11 2 19 13
20 26 1 18 -3 22 -15 19 -10 -2 -25 0 -35 5 -14 8 -15 12 -4 19 11 7 10 9 -3
9 -10 0 -18 5 -18 10 0 6 5 10 10 10 12 0 3 48 -12 67 -7 8 -3 10 13 6 19 -5
20 -4 10 16 -14 25 -9 26 25 5 13 -9 27 -14 31 -10 3 3 1 6 -5 6 -7 0 -12 5
-12 11 0 6 9 9 20 6 27 -7 26 10 -1 18 -14 5 -25 2 -30 -6 -5 -8 -9 -9 -9 -4
1 15 36 55 49 55 21 0 11 20 -13 26 -15 3 -23 11 -20 19 3 7 -2 15 -10 18 -28
11 -17 27 24 33 22 4 40 10 40 15 0 5 7 9 15 9 8 0 15 7 15 15 0 19 -32 33
-38 17 -2 -7 -11 -12 -19 -12 -8 0 -13 6 -10 13 3 7 -1 21 -9 31 -12 17 -11
21 4 32 10 8 12 13 5 14 -7 0 -13 9 -13 19 0 27 -17 35 -29 14 -6 -10 -11 -14
-11 -9 0 6 -14 -3 -31 -20 -28 -25 -30 -26 -20 -6 16 31 5 98 -19 115 -11 7
-16 18 -11 25 5 8 18 3 43 -18 42 -35 56 -29 27 11 -11 16 -16 29 -10 29 6 0
11 -4 11 -9 0 -12 35 -20 49 -12 6 4 -1 14 -19 25 -17 9 -30 21 -30 25 0 5
-10 21 -21 35 -15 20 -24 24 -29 16 -8 -13 -30 -5 -30 10 0 14 32 21 47 9 11
-9 16 -8 27 6 16 23 46 13 46 -15 0 -23 22 -27 39 -6 8 10 8 20 -3 40 -8 15
-17 23 -20 18 -4 -7 -15 -6 -30 1 -21 10 -22 13 -8 23 14 10 13 15 -7 47 -12
19 -20 39 -19 44 1 4 -3 18 -10 30 -6 12 -9 29 -6 37 7 19 28 22 21 4 -8 -23
13 -48 39 -48 31 0 28 20 -4 35 -22 10 -30 25 -13 25 5 0 7 9 4 20 -3 12 1 22
11 26 21 8 20 32 -4 72 -27 44 -26 62 6 62 23 0 25 3 20 27 -2 16 -8 46 -11
68 -8 48 -21 66 -42 58 -11 -4 -14 -3 -9 6 4 7 20 11 34 9 16 -2 26 2 25 9 -1
6 9 14 22 17 25 6 35 26 13 26 -6 0 -23 10 -36 23 -14 12 -22 16 -18 9 8 -14
-20 -17 -28 -3 -6 8 18 23 39 25 14 1 13 31 -2 31 -6 0 -15 3 -19 7 -4 5 -2 8
5 8 8 0 9 5 2 18 -8 14 -4 22 15 37 25 19 25 19 4 27 -28 10 -17 28 13 20 20
-5 21 -4 7 14 -18 22 -19 99 -1 117 14 14 14 58 0 54 -6 -1 -13 8 -14 21 -1
12 -10 28 -20 35 -13 10 -15 19 -9 33 14 28 11 53 -6 65 -12 9 -10 10 8 6 26
-6 30 14 7 33 -12 10 -18 10 -30 0 -13 -11 -15 -7 -15 29 l0 42 26 -26 c14
-14 29 -23 35 -20 5 4 19 -10 30 -30 27 -45 32 -41 15 10 -15 42 -33 56 -47
34 -6 -10 -9 -6 -9 13 0 14 -6 28 -12 31 -9 3 -7 7 5 11 52 18 53 19 32 23
-12 2 -26 13 -33 24 -11 18 -10 19 13 13 21 -5 24 -3 19 10 -3 9 -13 15 -22
14 -8 -2 -17 2 -19 9 -3 8 6 10 31 6 35 -5 36 -5 36 26 0 36 -16 42 -23 9 l-4
-23 -8 23 c-4 12 -14 22 -22 22 -10 0 -12 -6 -8 -20 3 -11 2 -20 -4 -20 -13 0
-52 50 -46 60 3 4 -2 10 -10 14 -8 3 -15 10 -15 16 0 6 7 4 16 -4 8 -9 22 -16
30 -16 8 0 12 -4 9 -10 -3 -5 -1 -10 4 -10 16 0 13 26 -5 41 -14 11 -14 13 1
21 8 5 13 13 10 19 -4 5 4 9 17 9 l23 0 -24 19 c-23 18 -23 19 -5 23 17 4 16
6 -8 18 -16 7 -28 21 -28 32 0 10 -6 21 -14 24 -8 3 -16 15 -20 27 -5 22 -5
22 11 2 10 -14 17 -16 20 -7 3 6 9 12 15 12 6 0 6 -6 -2 -15 -10 -12 -9 -20 4
-40 9 -14 21 -25 26 -25 17 0 11 28 -7 39 -17 10 -17 10 0 11 25 0 21 19 -8
32 -14 6 -25 18 -25 27 0 9 -10 21 -22 26 -30 14 -34 33 -6 37 13 2 22 9 20
17 -1 7 5 19 15 26 14 11 15 17 6 38 -11 24 -10 26 25 35 31 8 33 10 12 12
-14 1 -30 2 -35 1 -17 -2 -50 60 -36 68 8 5 6 15 -9 33 -26 33 -26 44 0 18 24
-24 40 -26 40 -6 0 8 4 17 9 20 5 4 7 -3 4 -14 -6 -24 12 -27 21 -4 14 37 6
54 -34 70 -41 17 -45 34 -7 34 18 0 19 -2 7 -10 -13 -9 -13 -10 0 -11 8 0 23
-2 33 -4 19 -4 22 6 6 22 -6 6 -12 25 -14 42 -3 35 -20 59 -50 71 -16 7 -16 9
-3 9 23 1 80 -52 75 -70 -2 -8 -2 -11 0 -6 3 4 10 7 16 7 7 0 18 9 25 20 7 12
8 20 2 20 -5 0 -10 -4 -10 -10 0 -5 -7 -10 -15 -10 -17 0 -20 25 -5 35 17 11
11 64 -8 74 -19 10 -46 81 -31 81 5 0 9 -9 9 -20 0 -14 6 -20 18 -18 11 2 16
-3 14 -14 -2 -10 1 -18 7 -18 5 0 7 16 4 38 -3 20 -5 43 -6 50 0 15 -17 16
-17 0 0 -6 -3 -8 -7 -4 -14 13 -9 51 7 58 27 12 68 8 84 -8 9 -8 16 -11 16 -5
0 5 -16 22 -36 37 -29 23 -33 29 -20 36 9 5 16 16 16 23 0 17 -26 20 -35 5
-14 -23 -21 -7 -18 38 4 50 9 118 12 140 1 10 10 12 34 7 l32 -6 -24 21 c-14
12 -31 18 -42 15 -9 -3 -20 -1 -24 5 -3 5 2 10 12 10 11 0 27 6 37 13 16 12
15 14 -8 36 -14 14 -29 22 -32 18 -9 -8 -44 11 -44 24 0 6 8 8 18 5 9 -3 23
-2 30 3 18 11 4 41 -20 41 -17 0 -18 3 -8 15 17 21 6 42 -32 60 -29 13 -30 15
-6 10 27 -5 49 10 26 18 -7 2 -10 8 -6 12 11 12 30 -6 25 -25 -3 -11 2 -21 10
-24 25 -10 36 4 18 24 -8 9 -13 24 -10 32 4 9 0 18 -8 21 -11 4 -13 15 -7 46
4 22 3 46 -1 53 -5 7 -9 18 -9 23 0 6 4 4 9 -4 8 -12 12 -12 25 -2 18 15 11
35 -10 27 -8 -3 -17 1 -20 9 -5 11 -11 12 -26 4 -24 -13 -40 -1 -15 12 25 14
21 30 -6 24 -20 -5 -23 -2 -22 23 0 28 24 62 44 62 6 0 8 -7 5 -15 -4 -8 -1
-15 6 -15 7 0 19 -8 27 -17 10 -13 16 -14 19 -6 3 7 12 9 21 6 11 -4 14 -2 11
8 -3 8 -15 13 -26 12 -15 -2 -20 2 -16 12 4 8 1 15 -5 15 -6 0 -11 7 -11 16 0
14 2 15 18 3 15 -13 16 -12 3 4 -7 9 -20 17 -27 17 -28 0 -13 19 30 36 33 14
42 22 34 31 -5 7 -8 18 -5 25 2 7 0 21 -5 30 -6 13 -2 21 17 34 29 19 31 31 8
56 -9 10 -11 18 -5 18 6 0 13 -6 15 -12 4 -9 6 -7 6 3 1 9 -8 24 -19 34 -16
14 -24 15 -51 6 -18 -6 -35 -8 -38 -5 -3 4 0 9 7 11 6 3 12 9 12 14 0 6 -4 8
-10 4 -15 -10 -54 35 -41 48 8 8 14 8 23 -1 7 -7 22 -12 35 -12 19 0 23 5 23
30 0 20 7 33 22 41 l22 12 -27 23 c-15 13 -26 27 -26 31 1 4 -3 19 -9 33 -9
21 -11 22 -11 6 -1 -28 -30 -56 -58 -56 -12 0 -23 2 -23 4 0 2 -3 12 -7 22 -4
10 -2 15 4 11 6 -4 9 8 8 29 -1 32 1 35 22 29 31 -7 30 15 -2 45 -27 25 -32
40 -14 40 18 0 41 29 37 48 -3 11 -12 16 -26 15 -16 -2 -22 3 -22 17 0 15 7
20 28 21 15 0 21 3 15 6 -7 2 -13 16 -13 30 0 18 -4 24 -15 20 -21 -9 -29 10
-9 21 11 6 13 11 5 16 -6 4 -11 2 -11 -3 0 -16 -27 -13 -33 3 -4 9 2 14 16 13
12 0 29 3 38 7 13 5 19 0 26 -20 6 -17 12 -24 16 -17 4 7 -7 28 -24 47 -24 28
-27 36 -14 36 15 0 15 2 1 15 -8 9 -20 14 -27 13 -6 -2 -14 3 -16 10 -3 6 2
12 10 12 8 0 17 7 21 15 3 8 13 15 22 15 16 0 15 3 -3 23 -27 30 -33 60 -17
82 16 22 18 55 4 55 -5 0 -10 -6 -11 -12 0 -7 -4 -4 -8 6 -5 13 -2 25 11 38
10 10 18 26 18 36 1 14 4 13 21 -8 14 -17 19 -33 15 -52 -8 -38 9 -35 23 3 15
43 14 49 -7 49 -11 0 -24 10 -30 23 -15 28 -31 53 -59 94 -29 41 -29 56 0 21
23 -29 34 -27 54 9 14 25 9 49 -13 57 -12 4 -12 10 -4 26 9 17 7 22 -12 30
-21 8 -21 9 -3 10 19 1 19 2 -2 17 -13 8 -23 21 -23 27 0 6 5 4 10 -4 8 -12
10 -10 10 9 0 14 10 35 21 48 18 18 20 25 9 38 -9 11 -9 15 -1 15 25 0 61 53
61 89 0 12 -7 21 -15 21 -9 0 -15 9 -15 25 0 14 -5 25 -11 25 -5 0 -7 5 -4 11
4 5 -5 21 -19 34 -25 23 -26 27 -13 51 16 30 3 71 -23 76 -9 2 -11 6 -4 10 6
4 22 1 37 -7 21 -11 28 -11 37 0 13 16 50 8 50 -11 0 -8 8 -14 17 -14 24 0
-31 56 -63 64 -37 10 -30 29 9 23 32 -5 32 -5 5 6 -16 6 -28 15 -28 20 0 4 -9
6 -20 2 -11 -3 -25 -3 -32 2 -9 5 -3 9 16 13 35 6 58 36 37 49 -8 6 -12 18 -8
31 3 12 0 34 -6 48 -9 20 -9 26 1 30 19 6 14 23 -5 20 -14 -2 -19 5 -21 35 -2
21 1 37 7 37 10 0 16 -22 12 -44 -1 -5 5 -6 14 -2 9 3 23 6 31 6 20 0 17 19
-3 27 -10 4 -28 17 -41 29 -22 21 -22 22 -3 17 20 -5 20 -2 16 76 -2 49 0 81
6 81 6 0 5 9 -2 21 -7 13 -8 36 -4 58 4 20 8 72 10 116 1 48 7 81 14 83 7 2 4
10 -7 20 -26 23 -44 70 -31 78 6 3 15 18 20 32 8 21 12 24 20 12 8 -13 10 -13
19 0 5 8 10 25 10 37 0 12 6 24 13 27 10 5 10 7 0 12 -7 3 -13 19 -13 36 0 27
2 29 33 27 21 -2 31 1 30 9 -2 7 2 13 7 13 6 1 15 3 20 4 6 1 18 3 28 4 14 2
13 4 -5 11 -13 5 -23 14 -23 19 0 5 -9 12 -19 16 -28 9 -33 30 -17 77 8 22 12
46 10 53 -7 17 22 38 45 32 16 -4 17 -1 10 32 -5 20 -6 44 -3 54 3 9 1 17 -5
17 -6 0 -11 6 -11 14 0 10 7 12 23 9 46 -12 49 -20 47 -142 -2 -64 -1 -278 1
-476 3 -312 4 -274 9 284 l5 643 32 27 c33 28 152 101 164 101 3 0 9 -17 13
-37z m-14614 5 c0 -13 -23 -5 -28 10 -2 7 2 10 12 6 9 -3 16 -11 16 -16z m235
2 c3 -6 -1 -7 -9 -4 -18 7 -21 14 -7 14 6 0 13 -4 16 -10z m-45 -32 c0 -6 -6
-5 -15 2 -8 7 -15 14 -15 16 0 2 7 1 15 -2 8 -4 15 -11 15 -16z m58 -50 c7 -9
6 -17 -4 -26 -9 -8 -14 -9 -14 -2 0 7 -8 9 -20 5 -16 -5 -20 -2 -20 14 0 15 6
21 24 21 13 0 28 -6 34 -12z m68 -33 c3 -8 16 -17 27 -21 32 -10 46 -24 40
-40 -6 -17 -24 -19 -20 -3 1 6 -4 14 -12 17 -10 3 -12 0 -8 -12 4 -9 1 -16 -5
-16 -17 0 -76 39 -82 55 -8 21 -1 19 28 -10 36 -36 49 -31 25 10 -12 21 -16
35 -10 35 7 0 14 -7 17 -15z m118 -51 c4 -10 1 -14 -6 -12 -15 5 -23 28 -10
28 5 0 13 -7 16 -16z m26 -66 c17 -12 30 -25 30 -30 0 -18 -28 -6 -53 22 -32
35 -19 39 23 8z m40 -139 c0 -6 -4 -7 -10 -4 -5 3 -10 11 -10 16 0 6 5 7 10 4
6 -3 10 -11 10 -16z m86 -26 c-4 -4 -14 1 -22 11 -22 31 -17 43 8 19 12 -13
18 -26 14 -30z m13804 37 c0 -5 -2 -10 -4 -10 -3 0 -8 5 -11 10 -3 6 -1 10 4
10 6 0 11 -4 11 -10z m-13816 -105 c3 -8 1 -15 -4 -15 -6 0 -10 7 -10 15 0 8
2 15 4 15 2 0 6 -7 10 -15z m26 -51 c0 -8 -4 -12 -10 -9 -5 3 -10 10 -10 16 0
5 5 9 10 9 6 0 10 -7 10 -16z m228 -19 c-3 -3 -9 2 -12 12 -6 14 -5 15 5 6 7
-7 10 -15 7 -18z m-33 -55 c16 -17 16 -20 3 -15 -9 4 -19 13 -22 21 -7 19 -2
18 19 -6z m-10 -51 c11 -17 -1 -21 -15 -4 -8 9 -8 15 -2 15 6 0 14 -5 17 -11z
m-131 -75 c3 -9 4 -19 1 -24 -3 -4 2 -13 10 -20 10 -8 15 -30 15 -61 0 -48
-12 -64 -24 -33 -8 20 -26 9 -26 -17 0 -36 -18 -19 -25 24 -4 23 -14 55 -22
70 -8 16 -12 31 -10 34 5 5 14 -5 48 -50 27 -36 49 -21 24 16 -9 15 -14 31
-10 37 4 6 1 17 -5 25 -10 12 -9 15 3 15 8 0 18 -7 21 -16z m162 -269 c6 -23
0 -45 -10 -34 -10 12 -15 59 -6 59 5 0 12 -11 16 -25z m-83 -5 c3 -11 1 -20
-4 -20 -5 0 -9 9 -9 20 0 11 2 20 4 20 2 0 6 -9 9 -20z m-48 -9 c3 -5 1 -12
-5 -16 -5 -3 -10 1 -10 9 0 18 6 21 15 7z m5 -55 c9 -12 8 -15 -9 -13 -21 1
-26 8 -14 20 9 9 9 9 23 -7z m88 -86 c7 -11 9 -20 4 -20 -4 0 -13 9 -20 20 -7
11 -9 20 -4 20 4 0 13 -9 20 -20z m272 -40 c0 -5 -2 -10 -4 -10 -3 0 -8 5 -11
10 -3 6 -1 10 4 10 6 0 11 -4 11 -10z m-100 -30 c0 -5 -2 -10 -4 -10 -3 0 -8
5 -11 10 -3 6 -1 10 4 10 6 0 11 -4 11 -10z m-132 -35 c-3 -3 -9 2 -12 12 -6
14 -5 15 5 6 7 -7 10 -15 7 -18z m11 -51 c3 -16 1 -17 -13 -5 -19 16 -21 34
-3 29 6 -3 14 -13 16 -24z m41 6 c0 -11 -4 -20 -10 -20 -5 0 -10 9 -10 20 0
11 5 20 10 20 6 0 10 -9 10 -20z m-117 -30 c10 -16 14 -30 8 -30 -5 0 -16 14
-25 30 -8 17 -11 30 -7 30 4 0 15 -13 24 -30z m227 -1 c0 -11 -3 -11 -24 -3
-23 9 -20 23 4 17 11 -3 20 -9 20 -14z m0 -49 c0 -5 -4 -10 -10 -10 -5 0 -10
5 -10 10 0 6 5 10 10 10 6 0 10 -4 10 -10z m-115 -40 c8 -13 -5 -13 -25 0 -13
8 -13 10 2 10 9 0 20 -4 23 -10z m141 -31 c4 -8 1 -8 -14 0 -12 6 -24 16 -28
22 -4 8 -1 8 14 0 12 -6 24 -16 28 -22z m-106 -44 c0 -8 -4 -15 -10 -15 -5 0
-7 7 -4 15 4 8 8 15 10 15 2 0 4 -7 4 -15z m-145 -55 c9 -27 -6 -50 -16 -24
-4 10 -8 25 -8 32 -1 20 17 14 24 -8z m190 1 c3 -5 1 -12 -5 -16 -5 -3 -10 1
-10 9 0 18 6 21 15 7z m-7 -73 c-5 -15 -23 -11 -26 6 -2 11 2 14 13 10 9 -4
14 -11 13 -16z m-118 -34 c0 -8 -4 -12 -10 -9 -5 3 -10 13 -10 21 0 8 5 12 10
9 6 -3 10 -13 10 -21z m82 -16 c-7 -7 -12 -8 -12 -2 0 14 12 26 19 19 2 -3 -1
-11 -7 -17z m-92 -18 c8 -5 11 -12 7 -16 -4 -4 -15 0 -24 9 -18 18 -8 23 17 7z
m247 -32 c-3 -7 -5 -2 -5 12 0 14 2 19 5 13 2 -7 2 -19 0 -25z m-217 -49 c0
-6 -4 -7 -10 -4 -5 3 -10 11 -10 16 0 6 5 7 10 4 6 -3 10 -11 10 -16z m55 -19
c3 -5 1 -10 -4 -10 -6 0 -11 5 -11 10 0 6 2 10 4 10 3 0 8 -4 11 -10z m158
-53 c-3 -4 -11 -3 -19 4 -11 9 -12 15 -2 26 10 13 13 12 19 -4 3 -10 4 -22 2
-26z m-143 -16 c0 -31 -22 -56 -42 -48 -8 3 -6 6 6 6 12 1 16 6 13 16 -4 8 -2
17 4 21 6 3 8 12 5 20 -3 8 -1 14 4 14 6 0 10 -13 10 -29z m13250 -1 c0 -5 -2
-10 -4 -10 -3 0 -8 5 -11 10 -3 6 -1 10 4 10 6 0 11 -4 11 -10z m-13385 -47
c37 -40 43 -53 23 -52 -28 1 -49 16 -63 43 -31 58 -9 63 40 9z m91 -36 c9 -28
0 -30 -24 -4 -21 22 -21 23 -2 23 11 0 23 -9 26 -19z m-26 -45 c6 -14 8 -27 6
-30 -3 -3 -8 3 -12 12 -3 9 -13 16 -21 16 -8 0 -12 -4 -8 -9 3 -5 0 -13 -5
-16 -7 -5 -5 -12 7 -20 15 -12 16 -17 6 -34 -16 -26 -16 -31 1 -31 8 0 17 -7
20 -16 3 -8 2 -12 -4 -9 -6 3 -10 -3 -10 -14 0 -14 -5 -19 -15 -15 -9 4 -15 0
-15 -9 0 -8 -5 -17 -11 -19 -17 -6 2 -38 32 -54 34 -17 38 -28 8 -19 -20 7
-21 5 -16 -26 l7 -34 -19 25 c-11 13 -17 28 -15 32 2 3 0 9 -6 13 -5 3 -10 14
-10 25 0 10 -7 21 -16 24 -12 5 -15 2 -10 -10 4 -10 1 -14 -6 -12 -23 8 -20
36 4 44 13 4 29 7 36 5 9 -1 12 4 7 18 -3 10 -1 22 5 26 22 14 9 27 -20 22
-35 -7 -34 -9 -16 60 13 50 13 53 -7 66 -19 12 -16 14 35 13 50 0 58 -3 68
-24z m-132 -21 c3 -8 -1 -12 -9 -9 -7 2 -15 10 -17 17 -3 8 1 12 9 9 7 -2 15
-10 17 -17z m355 -31 c-3 -11 -9 -20 -14 -20 -5 0 -9 9 -9 20 0 11 6 20 14 20
9 0 12 -7 9 -20z m13102 -92 c30 -14 32 -28 5 -35 -11 -3 -17 -9 -14 -14 9
-16 -5 -10 -31 13 -23 20 -23 22 -7 34 21 16 16 16 47 2z m-13465 -34 c0 -8
-4 -14 -9 -14 -11 0 -22 26 -14 34 9 9 23 -3 23 -20z m187 10 c-3 -3 -12 -4
-19 -1 -8 3 -5 6 6 6 11 1 17 -2 13 -5z m-10 -40 c2 -6 -10 -8 -32 -6 -19 2
-35 8 -35 14 0 13 63 6 67 -8z m113 -14 c0 -5 -4 -10 -10 -10 -5 0 -10 5 -10
10 0 6 5 10 10 10 6 0 10 -4 10 -10z m-126 -6 c17 -7 22 -54 6 -54 -5 0 -10 9
-10 20 0 14 -7 20 -22 20 -19 0 -20 2 -8 10 18 12 15 11 34 4z m13259 -4 c7 0
6 -4 -3 -10 -21 -14 -27 -12 -34 6 -5 12 -2 15 10 10 8 -3 21 -6 27 -6z
m-13350 -91 c12 0 17 -3 10 -5 -7 -3 -9 -12 -6 -20 7 -18 -2 -18 -21 2 -9 8
-16 23 -15 32 0 11 2 12 6 5 2 -7 14 -13 26 -14z m87 -27 c0 -13 -12 -22 -22
-16 -10 6 -1 24 13 24 5 0 9 -4 9 -8z m-26 -34 c6 -4 -1 -8 -16 -8 -15 0 -30
4 -33 10 -3 6 1 7 9 4 11 -4 16 0 17 12 0 15 2 15 6 4 3 -8 11 -18 17 -22z
m-61 -4 c22 -29 18 -39 -12 -29 -14 4 -21 15 -21 31 0 31 10 30 33 -2z m144 0
c-3 -3 -12 -4 -19 -1 -8 3 -5 6 6 6 11 1 17 -2 13 -5z m-83 -50 c4 -10 1 -14
-6 -12 -15 5 -23 28 -10 28 5 0 13 -7 16 -16z m-62 -51 c5 -7 6 -18 2 -25 -5
-8 -12 0 -19 23 -7 18 -10 39 -6 44 3 6 7 1 9 -10 2 -11 9 -25 14 -32z m645
41 c-3 -3 -12 -4 -19 -1 -8 3 -5 6 6 6 11 1 17 -2 13 -5z m-553 -20 c9 -3 16
-12 16 -20 0 -12 -4 -12 -20 -2 -30 19 -27 34 4 22z m85 -42 c14 -11 13 -12
-6 -2 -15 7 -23 19 -22 33 1 20 2 20 6 2 3 -11 13 -25 22 -33z m273 26 c-7 -7
-12 -8 -12 -2 0 14 12 26 19 19 2 -3 -1 -11 -7 -17z m-223 -46 c-2 -39 -19
-80 -36 -86 -8 -4 -13 -13 -9 -21 7 -20 -4 -19 -20 3 -18 23 -19 51 -2 34 17
-17 31 -15 25 3 -4 8 -2 17 4 21 6 3 8 12 5 19 -3 8 1 19 9 25 8 6 11 19 8 27
-4 11 -2 14 5 9 6 -4 11 -19 11 -34z m231 7 c6 -11 10 -28 8 -37 -3 -12 -8 -7
-21 17 -20 40 -20 41 -7 41 5 0 14 -9 20 -21z m-410 -43 c0 -8 7 -19 15 -26 8
-7 13 -16 10 -20 -3 -5 -1 -11 5 -15 5 -3 10 -11 10 -17 0 -6 -6 -6 -15 2 -13
11 -14 10 -9 -6 4 -10 12 -25 17 -32 15 -19 -1 -27 -20 -10 -10 9 -23 13 -30
11 -20 -7 -27 43 -9 69 21 29 20 48 -1 48 -15 0 -16 2 -3 9 17 11 30 5 30 -13z
m13270 -7 c0 -11 -11 -11 -29 0 -7 5 -10 14 -6 20 5 9 10 9 21 0 8 -6 14 -15
14 -20z m-13340 -49 c0 -5 -4 -10 -10 -10 -5 0 -10 5 -10 10 0 6 5 10 10 10 6
0 10 -4 10 -10z m157 -45 c-1 -37 -11 -46 -21 -19 -8 20 3 66 14 59 4 -3 8
-21 7 -40z m-135 -18 c2 -22 -2 -39 -14 -51 -21 -23 -42 -13 -28 14 5 10 10
30 10 44 0 39 27 33 32 -7z m208 -24 c15 -19 20 -36 16 -54 -3 -14 0 -31 7
-38 6 -6 7 -11 2 -11 -22 0 -30 17 -30 60 0 33 -4 45 -15 46 -29 3 -31 4 -25
14 10 16 22 12 45 -17z m-150 -20 c0 -9 8 -25 18 -36 16 -19 16 -19 -3 -16
-12 3 -21 14 -24 29 -1 14 -8 28 -15 32 -7 5 -5 8 7 8 9 0 17 -7 17 -17z m26
-20 c-11 -11 -19 6 -11 24 8 17 8 17 12 0 3 -10 2 -21 -1 -24z m529 17 c3 -5
1 -10 -4 -10 -6 0 -11 5 -11 10 0 6 2 10 4 10 3 0 8 -4 11 -10z m-585 -15 c0
-8 -2 -15 -4 -15 -2 0 -6 7 -10 15 -3 8 -1 15 4 15 6 0 10 -7 10 -15z m140 1
c0 -8 -7 -16 -15 -20 -17 -6 -18 -4 -9 18 8 20 24 21 24 2z m148 -16 c7 -11 9
-20 4 -20 -4 0 -13 9 -20 20 -7 11 -9 20 -4 20 4 0 13 -9 20 -20z m-308 -4 c0
-11 -19 -15 -25 -6 -3 5 1 10 9 10 9 0 16 -2 16 -4z m416 -27 c19 -22 19 -22
-3 -8 -13 8 -23 17 -23 21 0 12 6 9 26 -13z m-446 -19 c0 -11 -7 -20 -15 -20
-13 0 -13 3 -3 20 7 11 14 20 15 20 2 0 3 -9 3 -20z m74 -6 c-3 -12 1 -28 10
-37 21 -21 20 -33 -1 -16 -13 11 -17 11 -20 2 -3 -7 -9 -13 -14 -13 -4 0 -6 6
-3 14 3 8 0 24 -6 35 -13 26 -8 37 19 37 16 0 19 -5 15 -22z m86 10 c11 -12
10 -18 -5 -32 -10 -9 -15 -11 -11 -5 4 7 2 22 -4 33 -13 24 2 27 20 4z m100
-24 c0 -5 -2 -10 -4 -10 -3 0 -8 5 -11 10 -3 6 -1 10 4 10 6 0 11 -4 11 -10z
m110 -26 c0 -8 -4 -14 -8 -14 -5 0 -7 -15 -5 -32 l3 -33 -10 30 c-6 17 -6 33
-1 38 5 5 7 16 4 25 -4 10 -2 13 5 8 7 -4 12 -14 12 -22z m97 4 c-3 -8 -6 -5
-6 6 -1 11 2 17 5 13 3 -3 4 -12 1 -19z m-241 -3 c10 -8 15 -14 9 -14 -5 0
-19 6 -29 14 -11 8 -15 15 -10 15 6 0 19 -7 30 -15z m-218 -43 c10 -10 23 -17
29 -15 15 5 81 -41 121 -83 47 -51 39 -55 -10 -6 -24 23 -60 51 -81 61 l-38
19 -14 -35 c-18 -43 -38 -36 -22 8 10 26 9 32 -6 40 -18 11 -23 29 -7 29 6 0
18 -8 28 -18z m223 5 c-1 -12 -15 -9 -19 4 -3 6 1 10 8 8 6 -3 11 -8 11 -12z
m54 -17 c3 -5 1 -10 -4 -10 -6 0 -11 5 -11 10 0 6 2 10 4 10 3 0 8 -4 11 -10z
m305 -38 c0 -1 -9 2 -20 8 -11 6 -20 15 -20 20 0 6 9 2 20 -7 11 -10 20 -19
20 -21z m-375 -50 c-10 -26 -25 -1 -25 41 l1 42 15 -34 c8 -19 12 -41 9 -49z
m50 58 c-6 -10 -45 -1 -45 10 0 4 11 5 25 2 14 -2 23 -8 20 -12z m-205 -30 c0
-5 -4 -10 -10 -10 -5 0 -10 5 -10 10 0 6 5 10 10 10 6 0 10 -4 10 -10z m277
-22 c-3 -8 -6 -5 -6 6 -1 11 2 17 5 13 3 -3 4 -12 1 -19z m73 7 c7 -9 8 -15 2
-15 -5 0 -12 7 -16 15 -3 8 -4 15 -2 15 2 0 9 -7 16 -15z m-370 -26 c0 -6 -4
-7 -10 -4 -5 3 -10 11 -10 16 0 6 5 7 10 4 6 -3 10 -11 10 -16z m48 -28 c3 -8
-1 -12 -9 -9 -7 2 -15 10 -17 17 -3 8 1 12 9 9 7 -2 15 -10 17 -17z m46 3 c9
-3 16 -13 16 -20 0 -12 -4 -12 -20 -4 -11 6 -20 15 -20 20 0 12 3 12 24 4z
m116 -4 c0 -5 8 -10 17 -10 13 0 14 -3 5 -12 -8 -8 -15 -8 -27 2 -17 14 -20
30 -5 30 6 0 10 -4 10 -10z m190 -20 c0 -5 -4 -10 -10 -10 -5 0 -10 5 -10 10
0 6 5 10 10 10 6 0 10 -4 10 -10z m-327 -14 c9 -7 17 -20 17 -28 0 -22 -32
-19 -58 5 -21 20 -22 22 -5 28 25 10 26 10 46 -5z m127 -61 c0 -16 -5 -37 -10
-45 -7 -11 -10 -5 -11 25 -1 22 -1 45 0 52 1 6 -3 14 -9 18 -5 3 -10 12 -10
18 1 27 40 -40 40 -68z m-60 0 c7 -9 8 -15 2 -15 -5 0 -12 7 -16 15 -3 8 -4
15 -2 15 2 0 9 -7 16 -15z m-40 -47 c0 -5 -7 -3 -15 6 -8 8 -15 18 -15 22 0 3
7 1 15 -6 8 -7 15 -17 15 -22z m195 22 c3 -5 -1 -10 -10 -10 -9 0 -13 5 -10
10 3 6 8 10 10 10 2 0 7 -4 10 -10z m50 -10 c3 -5 1 -10 -4 -10 -6 0 -11 5
-11 10 0 6 2 10 4 10 3 0 8 -4 11 -10z m-186 -44 c-13 -15 -19 -3 -12 24 6 22
7 22 14 4 3 -10 3 -23 -2 -28z m231 12 c0 -6 -6 -5 -15 2 -8 7 -15 14 -15 16
0 2 7 1 15 -2 8 -4 15 -11 15 -16z m-95 -28 c3 -5 -1 -10 -9 -10 -9 0 -16 5
-16 10 0 6 4 10 9 10 6 0 13 -4 16 -10z m-124 -13 c-1 -12 -15 -9 -19 4 -3 6
1 10 8 8 6 -3 11 -8 11 -12z m84 3 c3 -6 -1 -7 -9 -4 -18 7 -21 14 -7 14 6 0
13 -4 16 -10z m-10 -30 c3 -5 1 -10 -4 -10 -6 0 -11 5 -11 10 0 6 2 10 4 10 3
0 8 -4 11 -10z m-100 -10 c3 -5 1 -10 -4 -10 -6 0 -11 5 -11 10 0 6 2 10 4 10
3 0 8 -4 11 -10z m140 -10 c3 -5 2 -10 -4 -10 -5 0 -13 5 -16 10 -3 6 -2 10 4
10 5 0 13 -4 16 -10z m-25 -30 c8 -5 11 -12 8 -16 -10 -9 -38 3 -38 16 0 12
10 13 30 0z m185 -38 c-11 -11 -25 15 -19 33 7 17 8 16 16 -5 5 -13 6 -25 3
-28z m-270 -13 c11 -17 -1 -21 -15 -4 -8 9 -8 15 -2 15 6 0 14 -5 17 -11z
m-125 -69 c14 -10 22 -22 18 -26 -5 -4 -16 0 -26 9 -10 10 -24 17 -30 17 -7 0
-12 4 -12 9 0 5 -3 17 -7 27 -6 17 -5 17 13 0 10 -9 30 -25 44 -36z m110 6 c0
-6 -7 -2 -15 8 -8 11 -15 25 -15 30 0 6 7 2 15 -8 8 -11 15 -25 15 -30z m40
-6 c-8 -5 -19 -10 -25 -10 -5 0 -3 5 5 10 8 5 20 10 25 10 6 0 3 -5 -5 -10z
m-180 -54 c-1 -20 -2 -20 -15 4 -19 33 -19 46 0 30 8 -7 15 -22 15 -34z m156
13 c19 -22 19 -22 -3 -10 -24 12 -39 31 -25 31 5 0 17 -10 28 -21z m-176 -14
c0 -12 -19 -12 -23 0 -4 9 -1 12 9 8 7 -3 14 -7 14 -8z m430 -15 c6 -11 8 -20
6 -20 -3 0 -10 9 -16 20 -6 11 -8 20 -6 20 3 0 10 -9 16 -20z m-340 6 c0 -11
-19 -15 -25 -6 -3 5 1 10 9 10 9 0 16 -2 16 -4z m100 -16 c0 -5 -4 -10 -10
-10 -5 0 -10 5 -10 10 0 6 5 10 10 10 6 0 10 -4 10 -10z m-133 -56 c-9 -9 -57
20 -57 33 0 11 8 9 31 -7 16 -12 28 -24 26 -26z m203 36 c0 -5 -4 -10 -10 -10
-5 0 -10 5 -10 10 0 6 5 10 10 10 6 0 10 -4 10 -10z m37 -22 c-3 -7 -5 -2 -5
12 0 14 2 19 5 13 2 -7 2 -19 0 -25z m-153 6 c4 -10 1 -14 -6 -12 -15 5 -23
28 -10 28 5 0 13 -7 16 -16z m67 -1 c13 -16 12 -17 -3 -4 -10 7 -18 15 -18 17
0 8 8 3 21 -13z m126 -15 c-3 -8 -6 -5 -6 6 -1 11 2 17 5 13 3 -3 4 -12 1 -19z
m-167 -43 l34 -25 -26 0 c-15 0 -40 11 -55 25 -26 22 -26 24 -7 25 11 0 35
-11 54 -25z m13254 19 c18 -7 22 -44 5 -44 -16 0 -36 24 -31 38 4 14 5 14 26
6z m-13158 -31 c-7 -7 -26 7 -26 19 0 6 6 6 15 -2 9 -7 13 -15 11 -17z m78 12
c-4 -8 -10 -15 -15 -15 -4 0 -6 7 -3 15 4 8 10 15 15 15 4 0 6 -7 3 -15z m196
-20 c0 -8 -4 -15 -10 -15 -5 0 -10 7 -10 15 0 8 5 15 10 15 6 0 10 -7 10 -15z
m-520 -15 c0 -5 -2 -10 -4 -10 -3 0 -8 5 -11 10 -3 6 -1 10 4 10 6 0 11 -4 11
-10z m304 -11 c-3 -6 0 -16 6 -24 10 -12 9 -15 -4 -15 -9 0 -16 3 -16 8 0 4
-3 17 -6 30 -5 18 -3 21 10 16 9 -3 13 -10 10 -15z m-174 -9 c8 -5 12 -11 9
-14 -3 -3 -14 1 -25 9 -21 16 -8 20 16 5z m-145 -21 c4 -6 5 -12 2 -15 -7 -7
-37 7 -37 17 0 13 27 11 35 -2z m40 1 c3 -5 -1 -10 -9 -10 -9 0 -16 5 -16 10
0 6 4 10 9 10 6 0 13 -4 16 -10z m105 -46 c0 -8 -4 -12 -10 -9 -5 3 -10 13
-10 21 0 8 5 12 10 9 6 -3 10 -13 10 -21z m-140 2 c0 -23 -11 -46 -23 -46 -6
0 -7 3 -4 6 3 4 2 15 -3 25 -7 12 -6 19 3 22 21 9 27 7 27 -7z m300 7 c0 -5
-5 -15 -10 -23 -8 -12 -10 -11 -10 8 0 12 5 22 10 22 6 0 10 -3 10 -7z m-210
-13 c0 -5 -2 -10 -4 -10 -3 0 -8 5 -11 10 -3 6 -1 10 4 10 6 0 11 -4 11 -10z
m-30 -75 c6 -3 10 -10 10 -15 0 -5 -11 1 -25 14 -25 23 -32 46 -18 60 4 4 11
-6 15 -23 5 -16 13 -33 18 -36z m455 45 c3 -5 2 -10 -4 -10 -5 0 -13 5 -16 10
-3 6 -2 10 4 10 5 0 13 -4 16 -10z m-415 -22 c0 -19 -2 -20 -10 -8 -13 19 -13
30 0 30 6 0 10 -10 10 -22z m-108 -15 c23 -21 23 -29 -1 -36 -23 -6 -41 10
-41 35 0 22 18 23 42 1z m168 -3 c0 -5 -2 -10 -4 -10 -3 0 -8 5 -11 10 -3 6
-1 10 4 10 6 0 11 -4 11 -10z m-12 -45 c-3 -3 -9 2 -12 12 -6 14 -5 15 5 6 7
-7 10 -15 7 -18z m-158 -15 c0 -5 -2 -10 -4 -10 -3 0 -8 5 -11 10 -3 6 -1 10
4 10 6 0 11 -4 11 -10z m377 -12 c-3 -8 -6 -5 -6 6 -1 11 2 17 5 13 3 -3 4
-12 1 -19z m83 -18 c0 -5 -2 -10 -4 -10 -3 0 -8 5 -11 10 -3 6 -1 10 4 10 6 0
11 -4 11 -10z m-400 -42 c0 -5 -4 -8 -10 -8 -5 0 -10 10 -10 23 0 18 2 19 10
7 5 -8 10 -18 10 -22z m101 -60 c21 -17 39 -38 39 -45 0 -8 7 -25 16 -38 9
-13 14 -30 11 -37 -2 -7 -11 3 -19 22 -9 19 -34 56 -58 83 -49 55 -45 60 11
15z m-61 -19 c0 -5 -7 -6 -15 -3 -8 4 -15 13 -15 21 0 13 3 13 15 3 8 -7 15
-16 15 -21z m220 -14 c0 -16 -6 -25 -15 -25 -15 0 -21 31 -8 43 13 14 23 6 23
-18z m-205 -25 c3 -5 1 -10 -4 -10 -6 0 -11 5 -11 10 0 6 2 10 4 10 3 0 8 -4
11 -10z m40 -18 c-3 -3 -11 0 -18 7 -9 10 -8 11 6 5 10 -3 15 -9 12 -12z m-55
-42 c0 -10 6 -21 13 -23 7 -4 6 -6 -4 -6 -22 -1 -41 23 -33 43 8 20 24 11 24
-14z m64 4 c8 -21 8 -24 -3 -24 -5 0 -11 9 -14 20 -6 24 8 27 17 4z m-116 -22
c2 -7 -2 -10 -12 -6 -9 3 -16 11 -16 16 0 13 23 5 28 -10z m207 -12 c3 -5 1
-10 -4 -10 -6 0 -11 5 -11 10 0 6 2 10 4 10 3 0 8 -4 11 -10z m-58 -45 c-5
-11 -11 -11 -31 -2 -14 7 -26 16 -26 20 0 4 9 3 19 -3 27 -14 31 -13 32 8 0
10 2 12 6 4 3 -7 2 -19 0 -27z m13148 24 c-7 -11 -35 -12 -35 -1 0 4 9 8 20 9
11 1 18 -2 15 -8z m-13215 -39 c6 -11 8 -20 6 -20 -3 0 -10 9 -16 20 -6 11 -8
20 -6 20 3 0 10 -9 16 -20z m13250 -30 c0 -10 -26 -20 -34 -13 -14 14 -5 31
14 26 11 -3 20 -9 20 -13z m-13170 0 c0 -5 -4 -10 -10 -10 -5 0 -10 5 -10 10
0 6 5 10 10 10 6 0 10 -4 10 -10z m64 -42 c18 -36 19 -38 9 -38 -8 0 -33 47
-33 62 0 16 9 7 24 -24z m-169 13 c-3 -5 -1 -12 5 -16 5 -3 10 -16 9 -28 0
-12 -3 -16 -6 -9 -8 21 -23 13 -23 -12 0 -19 -4 -23 -20 -19 -12 3 -20 0 -20
-8 0 -8 -6 -5 -14 6 -18 24 -12 35 14 28 15 -4 20 0 20 16 0 12 6 28 13 36 13
16 31 20 22 6z m370 -1 c3 -5 1 -10 -4 -10 -6 0 -11 5 -11 10 0 6 2 10 4 10 3
0 8 -4 11 -10z m-115 -21 c0 -5 -4 -9 -10 -9 -5 0 -10 7 -10 16 0 8 5 12 10 9
6 -3 10 -10 10 -16z m65 11 c3 -6 -1 -7 -9 -4 -18 7 -21 14 -7 14 6 0 13 -4
16 -10z m-68 -46 c-3 -3 -12 -4 -19 -1 -8 3 -5 6 6 6 11 1 17 -2 13 -5z m-215
-46 c-11 -11 -32 -3 -32 13 0 6 4 8 9 4 5 -3 13 0 17 7 6 9 9 9 12 -1 2 -7 0
-17 -6 -23z m-155 -18 c-2 -41 -13 -52 -23 -25 -8 20 4 65 16 65 5 0 9 -18 7
-40z m218 30 c3 -5 1 -10 -4 -10 -6 0 -11 5 -11 10 0 6 2 10 4 10 3 0 8 -4 11
-10z m-117 -38 c4 -25 -13 -30 -22 -6 -9 25 -7 36 7 32 6 -3 13 -14 15 -26z
m-48 -24 c0 -5 -4 -8 -10 -8 -5 0 -10 10 -10 23 0 18 2 19 10 7 5 -8 10 -18
10 -22z m174 -8 c-4 -19 -1 -29 10 -33 9 -4 16 -12 16 -18 0 -7 -8 -5 -20 6
-11 10 -20 26 -20 36 0 10 -4 21 -10 24 -17 11 -11 23 10 18 15 -4 18 -11 14
-33z m13226 20 c0 -5 -4 -10 -10 -10 -5 0 -10 5 -10 10 0 6 5 10 10 10 6 0 10
-4 10 -10z m-13330 -25 c0 -8 -4 -15 -9 -15 -13 0 -22 16 -14 24 11 11 23 6
23 -9z m77 -19 c-4 -9 -11 -16 -18 -16 -6 0 -8 7 -5 16 3 9 6 21 6 27 0 8 3 8
11 0 7 -7 9 -19 6 -27z m13193 10 c0 -11 -19 -15 -25 -6 -3 5 1 10 9 10 9 0
16 -2 16 -4z m-13343 -41 c-2 -33 -27 -52 -27 -20 0 8 5 15 11 15 6 0 9 9 6
20 -3 11 -1 20 4 20 5 0 8 -16 6 -35z m33 25 c0 -5 -4 -10 -10 -10 -5 0 -10 5
-10 10 0 6 5 10 10 10 6 0 10 -4 10 -10z m295 0 c3 -5 1 -10 -4 -10 -6 0 -11
5 -11 10 0 6 2 10 4 10 3 0 8 -4 11 -10z m-40 -10 c3 -5 1 -10 -4 -10 -6 0
-11 5 -11 10 0 6 2 10 4 10 3 0 8 -4 11 -10z m186 -37 c-9 -16 -10 -16 -11 -1
0 9 3 25 7 35 7 16 8 17 11 1 2 -10 -1 -25 -7 -35z m-435 -15 c4 -6 7 -31 6
-55 0 -33 4 -43 16 -44 14 -1 14 -2 -1 -6 -13 -3 -16 -10 -11 -25 8 -25 -4
-88 -16 -88 -6 0 -10 11 -10 25 0 14 5 25 10 25 18 0 11 22 -9 27 -16 4 -18
11 -14 38 4 27 2 33 -16 38 -13 3 -21 13 -21 26 0 27 15 27 34 -1 15 -21 15
-20 9 15 -6 36 7 51 23 25z m261 6 c-3 -3 -12 -4 -19 -1 -8 3 -5 6 6 6 11 1
17 -2 13 -5z m-342 -25 c-10 -15 -25 -10 -19 6 4 8 10 12 15 9 5 -3 7 -10 4
-15z m495 -9 c0 -5 -2 -10 -4 -10 -3 0 -8 5 -11 10 -3 6 -1 10 4 10 6 0 11 -4
11 -10z m-322 -48 c2 -7 -3 -12 -12 -12 -9 0 -16 7 -16 16 0 17 22 14 28 -4z
m-173 -2 c3 -5 -3 -10 -15 -10 -12 0 -18 5 -15 10 3 6 10 10 15 10 5 0 12 -4
15 -10z m-1 -24 c11 4 16 0 16 -11 0 -9 -5 -13 -10 -10 -6 3 -13 -1 -16 -9 -5
-13 -11 -11 -35 12 -37 35 -37 47 0 27 17 -8 37 -12 45 -9z m356 -49 c0 -5 -4
-5 -10 -2 -5 3 -10 14 -10 23 0 15 2 15 10 2 5 -8 10 -19 10 -23z m-133 -9
c-3 -7 -5 -2 -5 12 0 14 2 19 5 13 2 -7 2 -19 0 -25z m-168 -20 c-7 -14 -14
-17 -21 -10 -7 7 -6 15 3 25 19 21 31 10 18 -15z m13367 -15 c-2 -3 -7 -3 -10
-1 -3 2 -12 -6 -20 -17 -15 -20 -15 -20 -16 1 0 29 20 47 37 32 7 -6 11 -13 9
-15z m-13212 8 c8 -12 -3 -41 -15 -41 -5 0 -9 11 -9 25 0 25 14 34 24 16z
m-79 -21 c-3 -5 -1 -10 5 -12 5 -1 7 -13 4 -26 l-6 -22 -19 21 c-22 25 -21 23
-13 43 3 8 12 12 20 9 8 -3 12 -9 9 -13z m-39 -34 c16 -16 19 -62 5 -70 -12
-8 -22 20 -15 39 4 8 1 22 -6 30 -16 19 -3 20 16 1z m74 -68 c0 -19 -2 -20
-10 -8 -13 19 -13 30 0 30 6 0 10 -10 10 -22z m-69 -33 c31 5 42 -12 13 -19
-28 -7 -44 5 -43 34 0 12 2 12 7 -1 4 -9 14 -15 23 -14z m13266 -37 c-3 -7 -5
-2 -5 12 0 14 2 19 5 13 2 -7 2 -19 0 -25z m-13097 12 c0 -5 -4 -10 -10 -10
-5 0 -10 5 -10 10 0 6 5 10 10 10 6 0 10 -4 10 -10z m-160 -20 c20 -12 9 -21
-18 -13 -12 3 -19 9 -16 14 7 11 15 11 34 -1z m13301 -12 c0 -7 2 -21 4 -30 2
-10 0 -18 -5 -18 -4 0 -10 14 -12 30 -3 17 -1 30 4 30 4 0 8 -6 9 -12z
m-13337 -49 c-3 -5 -2 -14 2 -21 5 -7 11 -5 21 7 13 19 18 11 14 -23 -1 -6 14
-22 34 -34 26 -15 33 -23 24 -29 -10 -6 -9 -9 4 -15 17 -6 17 -7 0 -20 -25
-19 -33 -17 -33 7 0 29 -18 59 -35 59 -8 0 -15 7 -15 15 0 7 -6 18 -14 22 -8
4 -18 22 -22 38 -7 27 -6 29 9 16 9 -7 14 -17 11 -22z m76 0 c0 -6 -4 -7 -10
-4 -5 3 -10 11 -10 16 0 6 5 7 10 4 6 -3 10 -11 10 -16z m214 -4 c17 -25 16
-25 -3 -13 -22 13 -36 38 -22 38 5 0 16 -11 25 -25z m-144 6 c0 -5 3 -23 6
-40 4 -17 2 -31 -3 -31 -5 0 -10 6 -10 13 0 7 -3 25 -7 40 -4 16 -2 27 4 27 5
0 10 -4 10 -9z m13130 -41 c0 -5 -5 -10 -11 -10 -5 0 -7 5 -4 10 3 6 8 10 11
10 2 0 4 -4 4 -10z m-12995 -20 c3 -5 1 -10 -4 -10 -6 0 -11 5 -11 10 0 6 2
10 4 10 3 0 8 -4 11 -10z m-259 -97 c-10 -10 -19 5 -10 18 6 11 8 11 12 0 2
-7 1 -15 -2 -18z m13239 -3 c3 -5 1 -10 -4 -10 -6 0 -11 5 -11 10 0 6 2 10 4
10 3 0 8 -4 11 -10z m40 -10 c3 -5 2 -10 -4 -10 -5 0 -13 5 -16 10 -3 6 -2 10
4 10 5 0 13 -4 16 -10z m-13295 -25 c0 -12 -29 -3 -34 10 -4 13 -2 14 14 5 11
-6 20 -13 20 -15z m130 0 c0 -8 -2 -15 -4 -15 -2 0 -6 7 -10 15 -3 8 -1 15 4
15 6 0 10 -7 10 -15z m-200 -34 c0 -21 -26 -36 -36 -20 -6 11 13 39 27 39 5 0
9 -9 9 -19z m100 -3 c-1 -17 -39 -67 -40 -51 0 6 6 18 13 25 8 7 12 19 9 26
-2 6 1 12 7 12 6 0 11 -6 11 -12z m-75 -38 c3 -5 1 -10 -4 -10 -6 0 -11 5 -11
10 0 6 2 10 4 10 3 0 8 -4 11 -10z m139 -15 c-4 -8 -8 -15 -10 -15 -2 0 -4 7
-4 15 0 8 4 15 10 15 5 0 7 -7 4 -15z m-139 -34 c8 -17 12 -37 9 -45 -10 -26
-23 -18 -22 12 1 15 -2 35 -6 45 -13 29 2 19 19 -12z m65 -30 c0 -6 -4 -13
-10 -16 -5 -3 -10 1 -10 9 0 9 5 16 10 16 6 0 10 -4 10 -9z m-74 -58 c21 -28
16 -35 -11 -17 -14 9 -22 20 -19 25 8 13 15 11 30 -8z m13297 10 c-7 -2 -21
-2 -30 0 -10 3 -4 5 12 5 17 0 24 -2 18 -5z m-13317 -44 c19 -22 19 -22 -3
-10 -13 6 -23 16 -23 21 0 15 5 12 26 -11z m209 -27 c-6 -8 -35 12 -35 24 0
11 4 10 18 -3 10 -10 18 -19 17 -21z m-135 -7 c14 -12 17 -22 10 -29 -6 -6 -6
-14 1 -23 9 -10 8 -13 -5 -13 -10 0 -16 9 -16 25 0 14 -4 25 -10 25 -5 0 -14
9 -20 19 -13 25 10 23 40 -4z m-13 -107 c0 -15 -1 -28 -3 -28 -3 0 -44 70 -44
75 0 2 11 -2 23 -8 17 -8 24 -19 24 -39z m-87 32 c0 -5 -2 -10 -4 -10 -3 0 -8
5 -11 10 -3 6 -1 10 4 10 6 0 11 -4 11 -10z m254 -5 c3 -8 1 -15 -4 -15 -6 0
-10 7 -10 15 0 8 2 15 4 15 2 0 6 -7 10 -15z m79 -50 c-7 -21 -13 -19 -13 6 0
11 4 18 10 14 5 -3 7 -12 3 -20z m-298 5 c3 -5 1 -10 -4 -10 -6 0 -11 5 -11
10 0 6 2 10 4 10 3 0 8 -4 11 -10z m195 -51 c0 -4 -9 -5 -20 -2 -11 3 -20 12
-20 19 0 12 4 12 20 2 11 -7 20 -16 20 -19z m260 -12 c0 -16 -18 3 -23 25 -6
22 -5 22 8 4 8 -11 15 -24 15 -29z m-499 -9 c4 -6 4 -19 2 -29 -4 -12 0 -19
10 -19 8 0 17 -7 21 -15 3 -8 14 -15 24 -15 10 0 19 -7 19 -15 0 -8 -6 -15
-14 -15 -7 0 -13 5 -13 10 0 6 -9 10 -20 10 -11 0 -20 7 -20 15 0 8 -7 15 -15
15 -8 0 -15 8 -15 18 0 10 -7 28 -16 41 -16 23 -16 23 7 16 13 -4 27 -12 30
-17z m254 -18 c2 -4 -7 -5 -20 -2 -14 2 -25 8 -25 12 0 10 38 1 45 -10z
m13090 -30 c3 -5 1 -10 -4 -10 -6 0 -11 5 -11 10 0 6 2 10 4 10 3 0 8 -4 11
-10z m-13321 -58 c26 -16 30 -24 31 -66 0 -26 -1 -43 -3 -37 -2 6 -12 11 -23
11 -24 0 -37 29 -18 40 7 5 17 6 21 4 4 -3 8 -1 8 4 0 14 -46 53 -53 45 -4 -3
-7 -1 -7 5 0 16 10 15 44 -6z m-44 -27 c16 -19 1 -19 -24 0 -16 12 -17 15 -4
15 8 0 21 -7 28 -15z m270 -5 c0 -11 -2 -20 -4 -20 -2 0 -6 9 -9 20 -3 11 -1
20 4 20 5 0 9 -9 9 -20z m70 -15 c0 -8 -4 -15 -10 -15 -5 0 -7 7 -4 15 4 8 8
15 10 15 2 0 4 -7 4 -15z m-210 -17 c0 -6 -3 -8 -7 -4 -4 3 -13 -4 -20 -16 -8
-15 -12 -18 -13 -7 0 16 19 39 32 39 4 0 8 -5 8 -12z m35 -28 c3 -5 1 -10 -4
-10 -6 0 -11 5 -11 10 0 6 2 10 4 10 3 0 8 -4 11 -10z m-143 -61 c-3 -40 -1
-47 17 -52 22 -5 49 -52 37 -64 -10 -10 -41 11 -41 28 -1 22 -15 40 -27 33
-16 -10 -28 17 -28 63 0 38 2 43 23 41 20 -2 22 -6 19 -49z m13398 25 c0 -8
-5 -12 -10 -9 -6 4 -8 11 -5 16 9 14 15 11 15 -7z m-13250 -4 c0 -5 -4 -10 -9
-10 -6 0 -13 5 -16 10 -3 6 1 10 9 10 9 0 16 -4 16 -10z m119 -117 c2 -1 7
-20 11 -42 4 -22 3 -38 -1 -35 -5 3 -9 16 -9 29 0 13 -12 38 -27 57 -26 32
-26 32 -3 13 14 -11 27 -21 29 -22z m21 27 c0 -5 -4 -10 -10 -10 -5 0 -10 5
-10 10 0 6 5 10 10 10 6 0 10 -4 10 -10z m-142 -48 c-2 -8 -8 -17 -14 -19 -13
-4 -27 24 -19 37 9 14 36 -1 33 -18z m-119 -32 c12 -18 13 -22 2 -19 -8 3 -21
16 -30 29 -12 18 -13 22 -2 19 8 -3 21 -16 30 -29z m102 -16 c12 -15 11 -16
-11 -9 -35 10 -49 25 -23 25 11 0 27 -7 34 -16z m-60 -21 c13 -16 12 -17 -3
-4 -17 13 -22 21 -14 21 2 0 10 -8 17 -17z m63 -23 c20 -7 26 -16 25 -37 0
-16 -3 -21 -6 -13 -3 8 -17 25 -31 37 -30 25 -27 28 12 13z m-118 -57 c-7 -7
-26 7 -26 19 0 6 6 6 15 -2 9 -7 13 -15 11 -17z m492 -38 c-3 -3 -9 2 -12 12
-6 14 -5 15 5 6 7 -7 10 -15 7 -18z m-481 -1 c-3 -3 -12 -4 -19 -1 -8 3 -5 6
6 6 11 1 17 -2 13 -5z m73 -13 c0 -11 5 -23 10 -26 6 -3 10 -13 10 -21 0 -8
-4 -14 -10 -14 -5 0 -10 7 -10 15 0 8 -4 15 -10 15 -5 0 -10 -9 -10 -19 0 -28
-19 -36 -38 -16 -16 17 -16 17 1 12 12 -5 17 -1 17 13 0 11 5 20 10 20 6 0 10
9 10 20 0 11 5 20 10 20 6 0 10 -9 10 -19z m174 4 c-4 -8 -8 -15 -10 -15 -2 0
-4 7 -4 15 0 8 4 15 10 15 5 0 7 -7 4 -15z m-86 -80 c-7 -8 -48 35 -48 49 0 6
12 -2 27 -16 15 -15 24 -30 21 -33z m-119 -37 c39 -41 42 -68 5 -39 -14 11
-34 31 -45 45 -31 40 3 34 40 -6z m71 16 c0 -8 -4 -12 -10 -9 -5 3 -10 10 -10
16 0 5 5 9 10 9 6 0 10 -7 10 -16z m6 -66 c9 -17 10 -28 4 -28 -5 0 -10 6 -10
13 0 8 -11 24 -25 37 -14 13 -25 28 -25 33 0 15 40 -25 56 -55z m-63 -72 c3
-8 -1 -17 -9 -20 -9 -4 -14 1 -14 14 0 23 15 27 23 6z m65 -9 c2 -10 -3 -17
-12 -17 -10 0 -16 9 -16 21 0 24 23 21 28 -4z m-106 -42 c4 -40 -22 -41 -35
-1 -7 21 -6 30 4 37 18 11 27 1 31 -36z m223 15 c7 0 15 -10 19 -22 8 -32 7
-38 -5 -38 -6 0 -9 6 -7 12 3 7 -4 21 -14 32 -10 11 -18 25 -17 30 0 6 3 5 6
-1 2 -7 11 -13 18 -13z m-47 -25 c-3 -3 -9 2 -12 12 -6 14 -5 15 5 6 7 -7 10
-15 7 -18z m-108 -5 c0 -5 -9 -10 -20 -10 -11 0 -20 5 -20 10 0 6 9 10 20 10
11 0 20 -4 20 -10z m-83 -42 c33 -23 42 -38 23 -38 -13 0 -78 59 -66 60 6 0
25 -10 43 -22z m33 2 c0 -5 -2 -10 -4 -10 -3 0 -8 5 -11 10 -3 6 -1 10 4 10 6
0 11 -4 11 -10z m30 -50 c0 -5 -2 -10 -4 -10 -3 0 -8 5 -11 10 -3 6 -1 10 4
10 6 0 11 -4 11 -10z m13277 -6 c-3 -3 -12 -4 -19 -1 -8 3 -5 6 6 6 11 1 17
-2 13 -5z m-13137 -49 c11 -13 10 -14 -4 -9 -9 3 -16 10 -16 15 0 13 6 11 20
-6z m56 -1 c18 -14 18 -14 -6 -3 -31 14 -36 19 -24 19 6 0 19 -7 30 -16z m-96
-24 c0 -5 -4 -10 -9 -10 -6 0 -13 5 -16 10 -3 6 1 10 9 10 9 0 16 -4 16 -10z
m-138 -57 c12 -27 23 -51 25 -55 2 -4 -1 -9 -6 -12 -11 -7 -36 40 -46 84 -10
44 2 37 27 -17z m128 27 c0 -5 -2 -10 -4 -10 -3 0 -8 5 -11 10 -3 6 -1 10 4
10 6 0 11 -4 11 -10z m5 -50 c3 -5 1 -10 -4 -10 -6 0 -11 5 -11 10 0 6 2 10 4
10 3 0 8 -4 11 -10z m-168 -6 c-3 -3 -12 -4 -19 -1 -8 3 -5 6 6 6 11 1 17 -2
13 -5z m109 -55 c3 -6 0 -18 -9 -26 -13 -13 -14 -12 -14 11 0 27 11 34 23 15z
m134 -50 c0 -6 -4 -7 -10 -4 -5 3 -10 11 -10 16 0 6 5 7 10 4 6 -3 10 -11 10
-16z m-144 -46 c-11 -11 -19 6 -11 24 8 17 8 17 12 0 3 -10 2 -21 -1 -24z
m120 -27 c-13 -69 -26 -26 -17 54 1 2 6 -1 12 -7 7 -7 9 -25 5 -47z m88 -2 c9
-24 7 -27 -9 -10 -17 17 -19 26 -6 26 5 0 12 -7 15 -16z m-344 -30 c0 -13 5
-24 10 -24 6 0 15 -10 20 -22 5 -13 9 -17 9 -10 1 17 31 15 31 -3 0 -8 -7 -15
-17 -15 -9 0 -13 -3 -10 -7 8 -7 -11 -33 -24 -33 -4 0 -7 14 -7 31 1 22 -6 37
-21 48 -17 13 -21 23 -16 44 8 32 25 26 25 -9z m126 -6 c26 -49 26 -88 0 -88
-15 0 -17 3 -8 12 16 16 15 21 -8 48 -21 24 -27 60 -10 60 5 0 17 -15 26 -32z
m191 -105 c-2 -16 -4 -5 -4 22 0 28 2 40 4 28 2 -13 2 -35 0 -50z m-67 16 c0
-6 -4 -7 -10 -4 -5 3 -10 11 -10 16 0 6 5 7 10 4 6 -3 10 -11 10 -16z m-165
-9 c-3 -5 -10 -10 -16 -10 -5 0 -9 5 -9 10 0 6 7 10 16 10 8 0 12 -4 9 -10z
m55 -14 c0 -3 -4 -8 -10 -11 -5 -3 -10 -1 -10 4 0 6 5 11 10 11 6 0 10 -2 10
-4z m-64 -33 c-8 -8 -36 5 -36 17 0 7 6 7 21 0 11 -7 18 -14 15 -17z m-122
-14 c29 -34 33 -49 12 -49 -8 0 -23 18 -34 40 -23 48 -14 52 22 9z m13436 -10
c0 -11 -3 -11 -24 -3 -23 9 -20 23 4 17 11 -3 20 -9 20 -14z m-13326 -7 c-1
-7 -2 -26 -2 -43 -1 -20 -6 -29 -14 -26 -7 2 -12 13 -10 23 1 10 4 29 5 41 1
13 7 21 12 20 6 -2 10 -9 9 -15z m173 -24 c-3 -8 -6 -5 -6 6 -1 11 2 17 5 13
3 -3 4 -12 1 -19z m-222 -8 c3 -5 1 -10 -4 -10 -6 0 -11 5 -11 10 0 6 2 10 4
10 3 0 8 -4 11 -10z m138 -26 c8 -8 -3 -34 -14 -34 -5 0 -9 9 -9 20 0 19 11
26 23 14z m-113 -34 c0 -5 -4 -10 -10 -10 -5 0 -10 5 -10 10 0 6 5 10 10 10 6
0 10 -4 10 -10z m127 -22 c-3 -8 -6 -5 -6 6 -1 11 2 17 5 13 3 -3 4 -12 1 -19z
m-149 -26 c5 -31 -15 -27 -21 3 -3 16 0 24 7 22 6 -2 12 -13 14 -25z m97 17
c11 -17 -1 -21 -15 -4 -8 9 -8 15 -2 15 6 0 14 -5 17 -11z m-115 -59 c0 -4 -6
-10 -12 -13 -10 -3 -8 -12 5 -36 19 -32 9 -43 -13 -16 -7 8 -9 15 -4 15 4 0 3
5 -4 12 -7 7 -12 25 -12 40 0 26 2 28 20 18 11 -6 20 -15 20 -20z m94 13 c3
-10 11 -25 17 -34 7 -9 9 -27 5 -43 -8 -33 -25 -26 -19 7 3 14 -2 39 -11 56
-9 17 -12 31 -7 31 5 0 11 -8 15 -17z m220 -39 c8 -21 8 -24 -3 -24 -5 0 -11
9 -14 20 -6 24 8 27 17 4z m-254 -25 c0 -6 -4 -7 -10 -4 -5 3 -10 11 -10 16 0
6 5 7 10 4 6 -3 10 -11 10 -16z m0 -41 c0 -16 -3 -19 -11 -11 -6 6 -8 16 -5
22 11 17 16 13 16 -11z m13295 2 c3 -5 1 -10 -4 -10 -6 0 -11 5 -11 10 0 6 2
10 4 10 3 0 8 -4 11 -10z m-13175 -35 c0 -14 -4 -25 -10 -25 -5 0 -10 11 -10
25 0 14 5 25 10 25 6 0 10 -11 10 -25z m-170 0 c0 -8 5 -15 10 -15 6 0 10 -9
10 -20 0 -11 -4 -20 -10 -20 -5 0 -10 9 -10 19 0 11 -4 23 -10 26 -5 3 -10 10
-10 16 0 5 5 9 10 9 6 0 10 -7 10 -15z m82 -47 c6 -13 5 -18 -7 -18 -10 0 -15
10 -14 33 0 17 3 25 6 17 3 -8 10 -23 15 -32z m-214 -27 c24 -20 30 -61 10
-61 -23 1 -43 24 -46 53 -3 32 5 33 36 8z m13495 0 c3 -13 1 -18 -9 -14 -7 2
-10 11 -7 19 7 19 10 18 16 -5z m-13311 -20 c4 -25 2 -28 -13 -18 -12 7 -15
15 -9 23 6 6 7 14 3 17 -3 4 -2 7 4 7 6 0 13 -13 15 -29z m13381 9 c21 -25 21
-30 0 -31 -17 -1 -17 -2 0 -6 17 -5 24 -23 8 -23 -12 0 -27 23 -26 40 0 8 -8
20 -20 27 l-20 12 20 1 c11 0 28 -9 38 -20z m-13483 -72 c0 -12 -28 -9 -35 2
-4 6 -4 18 -1 27 6 14 8 14 21 -3 8 -10 15 -22 15 -26z m45 2 c3 -5 2 -10 -4
-10 -5 0 -13 5 -16 10 -3 6 -2 10 4 10 5 0 13 -4 16 -10z m212 -22 c-3 -8 -6
-5 -6 6 -1 11 2 17 5 13 3 -3 4 -12 1 -19z m-90 -10 c-3 -8 -6 -5 -6 6 -1 11
2 17 5 13 3 -3 4 -12 1 -19z m-141 -4 c-3 -9 -6 -18 -6 -20 0 -2 -4 -4 -9 -4
-7 0 -8 17 -2 38 1 1 6 2 12 2 6 0 8 -7 5 -16z m61 -76 c-3 -8 -6 -5 -6 6 -1
11 2 17 5 13 3 -3 4 -12 1 -19z m-107 -22 c0 -3 -4 -8 -10 -11 -5 -3 -10 -1
-10 4 0 6 5 11 10 11 6 0 10 -2 10 -4z m30 -60 c0 -8 -4 -17 -9 -21 -12 -7
-24 12 -16 25 9 15 25 12 25 -4z m86 -63 c4 -33 2 -63 -3 -66 -5 -3 -9 2 -10
11 0 9 -3 43 -6 75 -6 78 11 59 19 -20z m-176 41 c0 -8 -4 -12 -10 -9 -5 3
-10 10 -10 16 0 5 5 9 10 9 6 0 10 -7 10 -16z m65 -84 c2 -8 -2 -33 -9 -55
l-14 -39 -11 39 c-16 57 -14 71 9 71 11 0 22 -7 25 -16z m115 -89 c0 -6 -4
-13 -10 -16 -5 -3 -10 1 -10 9 0 9 5 16 10 16 6 0 10 -4 10 -9z m13380 -5 c0
-3 -4 -8 -10 -11 -5 -3 -10 -1 -10 4 0 6 5 11 10 11 6 0 10 -2 10 -4z m-13730
-25 c0 -6 -4 -13 -10 -16 -5 -3 -10 1 -10 9 0 9 5 16 10 16 6 0 10 -4 10 -9z
m180 -24 c0 -23 -17 -47 -33 -47 -4 0 -6 9 -2 19 3 11 1 22 -5 26 -18 11 -10
25 15 25 19 0 25 -5 25 -23z m210 -27 c0 -5 -5 -10 -11 -10 -5 0 -7 5 -4 10 3
6 8 10 11 10 2 0 4 -4 4 -10z m-116 -45 c-4 -8 -10 -12 -15 -9 -11 6 -2 24 11
24 5 0 7 -7 4 -15z m-114 -11 c0 -8 -4 -13 -10 -9 -5 3 -17 -6 -26 -20 -17
-26 -44 -34 -44 -12 0 7 17 23 38 35 45 26 42 26 42 6z m181 -57 c-17 -17 -24
-1 -10 25 12 21 14 21 17 4 2 -10 -1 -23 -7 -29z m-161 -37 c0 -5 -9 -10 -21
-10 -11 0 -17 5 -14 10 3 6 13 10 21 10 8 0 14 -4 14 -10z m-68 -62 c-8 -8 -9
-4 -5 13 4 13 8 18 11 10 2 -7 -1 -18 -6 -23z m-101 -131 c-10 -9 -11 -8 -5 6
3 10 9 15 12 12 3 -3 0 -11 -7 -18z m-101 -157 c0 -5 -7 -10 -16 -10 -8 0 -12
5 -9 10 3 6 10 10 16 10 5 0 9 -4 9 -10z m-140 -59 c0 -12 -20 -25 -27 -18 -7
7 6 27 18 27 5 0 9 -4 9 -9z m-80 -21 c0 -5 -7 -10 -16 -10 -8 0 -12 5 -9 10
3 6 10 10 16 10 5 0 9 -4 9 -10z"/>
<path d="M3008 10603 c7 -3 16 -2 19 1 4 3 -2 6 -13 5 -11 0 -14 -3 -6 -6z"/>
<path d="M3127 10539 c-9 -5 -22 -7 -29 -3 -6 4 -3 -4 8 -18 15 -21 21 -23 27
-12 15 27 47 9 51 -28 2 -19 20 -11 21 10 1 14 -8 31 -23 43 -28 22 -31 22
-55 8z"/>
<path d="M3113 10472 c-9 -6 -7 -11 7 -20 20 -12 36 -1 25 18 -7 12 -16 12
-32 2z"/>
<path d="M3279 10464 c-3 -45 -4 -144 -1 -126 4 23 30 30 49 11 7 -7 11 -3 11
15 0 15 -5 29 -11 33 -6 4 -8 0 -4 -10 3 -10 2 -17 -3 -17 -9 0 -15 35 -11 66
1 6 -6 17 -14 24 -8 7 -15 9 -16 4z"/>
<path d="M3173 10453 c-20 -7 -15 -23 6 -23 11 0 23 -4 26 -10 9 -14 25 -12
25 3 0 16 -39 36 -57 30z"/>
<path d="M3220 10275 c0 -14 5 -25 10 -25 6 0 10 7 10 15 0 8 5 15 10 15 6 0
10 5 10 10 0 6 -9 10 -20 10 -15 0 -20 -7 -20 -25z"/>
<path d="M3350 10270 c6 -11 15 -18 20 -15 13 8 0 35 -16 35 -12 0 -12 -4 -4
-20z"/>
<path d="M3285 10170 c3 -5 13 -10 21 -10 8 0 12 5 9 10 -3 6 -13 10 -21 10
-8 0 -12 -4 -9 -10z"/>
<path d="M3381 10095 c0 -5 6 -21 14 -35 8 -14 14 -20 14 -15 0 6 -6 21 -14
35 -8 14 -14 21 -14 15z"/>
<path d="M3340 10028 c0 -9 5 -20 11 -23 17 -11 18 -2 3 19 -12 17 -14 17 -14
4z"/>
<path d="M3370 9983 c0 -6 10 -17 22 -25 17 -12 22 -27 26 -76 2 -34 8 -62 13
-62 14 0 10 103 -4 120 -23 27 -57 53 -57 43z"/>
<path d="M3360 9734 c0 -41 16 -63 22 -31 3 13 -1 33 -9 43 -12 16 -13 15 -13
-12z"/>
<path d="M3498 9662 c-26 -5 -23 -49 3 -57 27 -9 29 -6 21 30 -5 22 -12 30
-24 27z"/>
<path d="M3382 9638 c5 -32 28 -35 28 -4 0 17 -5 26 -16 26 -10 0 -14 -7 -12
-22z"/>
<path d="M3321 9484 c0 -11 3 -14 6 -6 3 7 2 16 -1 19 -3 4 -6 -2 -5 -13z"/>
<path d="M3537 9443 c5 -36 5 -37 -10 -18 -8 11 -19 17 -23 13 -9 -10 14 -64
43 -98 21 -25 22 -32 13 -80 -12 -64 -12 -71 -1 -89 8 -12 12 -12 25 -2 8 7
12 19 9 27 -3 8 -2 22 3 32 4 9 8 21 8 25 1 5 9 15 19 22 18 13 18 14 0 34 -9
12 -23 21 -30 21 -17 0 -36 38 -29 57 7 17 -13 93 -25 93 -4 0 -5 -17 -2 -37z"/>
<path d="M3526 9129 c-19 -63 -32 -140 -24 -145 5 -3 10 -4 12 -3 26 39 36 64
36 88 0 16 5 31 11 33 6 2 1 12 -10 22 -16 15 -21 16 -25 5z"/>
<path d="M3650 9015 c0 -35 13 -47 23 -21 7 18 -3 56 -14 56 -5 0 -9 -16 -9
-35z"/>
<path d="M3500 8948 c0 -18 18 -34 28 -24 3 4 -2 14 -11 23 -16 16 -17 16 -17
1z"/>
<path d="M3660 8940 c0 -5 5 -10 10 -10 6 0 10 5 10 10 0 6 -4 10 -10 10 -5 0
-10 -4 -10 -10z"/>
<path d="M3487 8890 c-4 -16 -1 -30 8 -39 22 -22 28 -7 12 30 -13 33 -13 34
-20 9z"/>
<path d="M3520 8706 c0 -3 7 -12 16 -20 23 -23 40 -19 19 4 -16 18 -35 26 -35
16z"/>
<path d="M3517 8669 c7 -7 15 -10 18 -7 3 3 -2 9 -12 12 -14 6 -15 5 -6 -5z"/>
<path d="M3384 8620 c-1 -22 2 -40 6 -40 10 0 19 50 13 67 -10 25 -18 13 -19
-27z"/>
<path d="M3426 8545 c4 -8 8 -15 10 -15 2 0 4 7 4 15 0 8 -4 15 -10 15 -5 0
-7 -7 -4 -15z"/>
<path d="M3514 8515 c1 -33 16 -52 16 -20 0 33 40 4 41 -29 0 -21 0 -21 8 -1
10 25 3 45 -24 67 -31 26 -42 22 -41 -17z"/>
<path d="M3490 8450 c0 -5 5 -10 10 -10 6 0 10 5 10 10 0 6 -4 10 -10 10 -5 0
-10 -4 -10 -10z"/>
<path d="M3510 8350 c0 -5 5 -10 10 -10 6 0 10 5 10 10 0 6 -4 10 -10 10 -5 0
-10 -4 -10 -10z"/>
<path d="M3460 8333 c0 -12 8 -18 24 -19 22 -2 23 0 13 17 -15 24 -37 25 -37
2z"/>
<path d="M3478 8293 c7 -3 16 -2 19 1 4 3 -2 6 -13 5 -11 0 -14 -3 -6 -6z"/>
<path d="M3590 8288 c0 -23 22 -75 26 -62 3 6 -2 26 -10 45 -9 19 -15 26 -16
17z"/>
<path d="M3546 8281 c-4 -5 -3 -16 0 -24 3 -8 1 -18 -5 -22 -16 -9 -13 -25 4
-25 8 0 15 -9 15 -20 0 -26 16 -26 23 0 3 12 -1 24 -11 29 -13 8 -14 12 -3 25
7 9 11 23 7 31 -6 17 -22 20 -30 6z"/>
<path d="M3390 8194 c0 -8 5 -12 10 -9 6 3 10 10 10 16 0 5 -4 9 -10 9 -5 0
-10 -7 -10 -16z"/>
<path d="M3450 8160 c0 -5 5 -10 11 -10 5 0 7 5 4 10 -3 6 -8 10 -11 10 -2 0
-4 -4 -4 -10z"/>
<path d="M3530 8165 c0 -13 31 -65 39 -65 11 0 0 53 -13 62 -13 9 -26 10 -26
3z"/>
<path d="M3501 8116 c-11 -13 -11 -19 0 -32 11 -14 13 -14 21 0 5 9 5 23 0 32
-8 14 -10 14 -21 0z"/>
<path d="M3560 8061 c0 -5 7 -12 16 -15 24 -9 28 -7 14 9 -14 17 -30 20 -30 6z"/>
<path d="M3460 8041 c0 -5 5 -13 10 -16 6 -3 10 -2 10 4 0 5 -4 13 -10 16 -5
3 -10 2 -10 -4z"/>
<path d="M3509 8023 c-14 -37 -16 -72 -4 -72 6 0 9 7 7 15 -2 9 1 21 6 27 16
21 21 46 12 52 -6 4 -15 -6 -21 -22z"/>
<path d="M3410 8022 c6 -13 14 -21 18 -18 3 4 -2 14 -12 24 -18 16 -18 16 -6
-6z"/>
<path d="M3559 8038 c-8 -34 -7 -88 2 -93 8 -5 9 -1 5 13 -4 11 -2 23 4 27 13
8 13 42 0 50 -5 3 -10 5 -11 3z"/>
<path d="M3440 7946 c0 -3 4 -16 10 -30 5 -14 10 -44 12 -66 1 -23 6 -44 11
-47 5 -3 7 8 6 23 -4 36 12 44 27 15 10 -19 12 -20 18 -6 3 9 2 25 -4 34 -5
10 -7 21 -4 23 2 3 -11 17 -30 32 -33 25 -46 31 -46 22z"/>
<path d="M3336 7760 c8 -43 14 -51 14 -19 0 13 -5 31 -10 39 -7 11 -8 5 -4
-20z"/>
<path d="M3496 7753 c-4 -21 -9 -46 -12 -55 -4 -13 0 -18 15 -18 25 0 38 -20
20 -31 -10 -6 -7 -8 9 -6 28 2 28 8 -3 37 -17 16 -22 27 -15 35 5 7 7 14 5 17
-3 3 -1 17 4 32 8 20 7 26 -3 26 -8 0 -17 -16 -20 -37z"/>
<path d="M3600 7734 c0 -5 7 -18 15 -28 12 -16 15 -17 15 -4 0 8 -7 21 -15 28
-8 7 -15 9 -15 4z"/>
<path d="M3545 7710 c3 -5 8 -10 11 -10 2 0 4 5 4 10 0 6 -5 10 -11 10 -5 0
-7 -4 -4 -10z"/>
<path d="M3342 7635 c0 -16 2 -22 5 -12 2 9 2 23 0 30 -3 6 -5 -1 -5 -18z"/>
<path d="M3524 7596 c6 -20 14 -36 18 -36 4 0 5 7 2 15 -4 8 -1 22 6 30 8 9 8
15 2 15 -6 0 -17 3 -25 6 -12 4 -13 0 -3 -30z"/>
<path d="M3471 7574 c-16 -19 -11 -25 16 -18 13 4 20 11 16 20 -7 18 -14 17
-32 -2z"/>
<path d="M3600 7539 c0 -26 3 -29 14 -20 8 7 12 21 9 31 -8 31 -23 23 -23 -11z"/>
<path d="M3536 7515 c-5 -19 -3 -31 6 -36 9 -6 9 -9 1 -9 -6 0 -14 -18 -18
-41 -6 -32 -3 -43 11 -53 9 -7 14 -17 11 -23 -4 -6 0 -19 8 -29 8 -10 15 -27
15 -36 0 -10 5 -18 10 -18 6 0 1 -9 -11 -21 -16 -16 -18 -23 -8 -35 8 -10 8
-14 0 -14 -6 0 -14 7 -17 15 -8 19 -21 19 -21 0 0 -21 43 -30 60 -13 7 7 12
18 10 25 -7 20 17 25 42 9 13 -9 26 -12 29 -7 7 11 -4 21 -24 21 -24 0 -70 72
-63 98 3 14 -1 22 -16 27 -16 5 -21 15 -21 38 1 30 1 31 15 13 8 -11 15 -23
15 -28 0 -4 7 -5 15 -2 8 4 15 1 15 -5 0 -6 5 -11 10 -11 21 0 9 30 -15 36
-31 8 -53 33 -37 43 8 5 8 17 -2 45 l-13 38 -7 -27z"/>
<path d="M3623 7508 c-22 -28 -24 -38 -9 -38 9 0 16 5 16 11 0 7 8 18 18 25
15 12 15 13 1 14 -9 0 -21 -6 -26 -12z"/>
<path d="M3640 7450 c0 -5 5 -10 10 -10 6 0 10 5 10 10 0 6 -4 10 -10 10 -5 0
-10 -4 -10 -10z"/>
<path d="M3355 7380 c3 -5 8 -10 11 -10 2 0 4 5 4 10 0 6 -5 10 -11 10 -5 0
-7 -4 -4 -10z"/>
<path d="M3641 7364 c0 -11 3 -14 6 -6 3 7 2 16 -1 19 -3 4 -6 -2 -5 -13z"/>
<path d="M3488 7328 c13 -26 17 -29 20 -15 5 26 -5 47 -22 47 -12 0 -12 -5 2
-32z"/>
<path d="M3533 7305 c0 -14 3 -28 8 -31 5 -3 9 6 9 20 0 14 -4 27 -9 30 -5 3
-8 -6 -8 -19z"/>
<path d="M3390 7290 c0 -5 5 -10 11 -10 5 0 7 5 4 10 -3 6 -8 10 -11 10 -2 0
-4 -4 -4 -10z"/>
<path d="M3535 7250 c3 -5 8 -10 11 -10 2 0 4 5 4 10 0 6 -5 10 -11 10 -5 0
-7 -4 -4 -10z"/>
<path d="M3445 7240 c3 -5 8 -10 11 -10 2 0 4 5 4 10 0 6 -5 10 -11 10 -5 0
-7 -4 -4 -10z"/>
<path d="M3530 7103 c1 -5 19 -28 40 -53 38 -43 40 -44 54 -25 16 22 5 56 -17
54 -9 0 -9 -2 1 -6 6 -2 12 -11 12 -19 0 -25 -25 -14 -48 21 -20 32 -43 46
-42 28z"/>
<path d="M3280 7060 c0 -5 5 -10 11 -10 5 0 7 5 4 10 -3 6 -8 10 -11 10 -2 0
-4 -4 -4 -10z"/>
<path d="M3510 7045 c0 -3 11 -10 25 -15 17 -7 25 -17 25 -34 0 -34 13 -39 27
-10 9 20 8 26 -7 34 -30 16 -70 30 -70 25z"/>
<path d="M3618 6993 c7 -3 16 -2 19 1 4 3 -2 6 -13 5 -11 0 -14 -3 -6 -6z"/>
<path d="M3600 6964 c0 -3 7 -18 15 -35 9 -16 13 -34 10 -39 -8 -13 -35 -1
-29 14 2 6 -1 19 -8 29 -12 15 -13 13 -15 -18 -2 -27 1 -35 14 -35 10 0 26
-11 38 -26 l20 -25 -3 43 c-5 81 -7 87 -24 92 -10 2 -18 2 -18 0z"/>
<path d="M3500 6950 c0 -5 5 -10 10 -10 6 0 10 5 10 10 0 6 -4 10 -10 10 -5 0
-10 -4 -10 -10z"/>
<path d="M3511 6914 c0 -11 3 -14 6 -6 3 7 2 16 -1 19 -3 4 -6 -2 -5 -13z"/>
<path d="M3560 6769 c0 -11 5 -29 11 -41 14 -25 4 -35 -18 -17 -10 7 -2 -4 17
-24 47 -49 64 -49 43 1 -8 20 -22 44 -30 53 -11 13 -11 18 -2 21 7 2 9 10 5
16 -11 19 -26 14 -26 -9z"/>
<path d="M3680 6785 c0 -9 42 -47 47 -42 7 8 -21 47 -34 47 -7 0 -13 -2 -13
-5z"/>
<path d="M3405 6760 c3 -5 8 -10 11 -10 2 0 4 5 4 10 0 6 -5 10 -11 10 -5 0
-7 -4 -4 -10z"/>
<path d="M3502 6689 c2 -7 10 -15 17 -17 8 -3 12 1 9 9 -2 7 -10 15 -17 17 -8
3 -12 -1 -9 -9z"/>
<path d="M3700 6685 c0 -8 7 -15 15 -15 9 0 12 6 9 15 -4 8 -10 15 -15 15 -5
0 -9 -7 -9 -15z"/>
<path d="M3476 6665 c18 -28 24 -31 24 -12 0 7 -9 18 -20 25 -20 12 -21 12 -4
-13z"/>
<path d="M3540 6660 c0 -17 8 -38 28 -69 3 -5 42 36 42 44 0 4 -12 5 -27 3
-22 -2 -27 1 -25 14 1 9 -2 19 -8 23 -5 3 -10 -3 -10 -15z"/>
<path d="M3630 6621 c0 -5 7 -14 15 -21 9 -7 14 -19 11 -25 -2 -7 1 -18 7 -25
10 -10 7 -10 -10 -1 -13 6 -23 18 -23 26 0 8 -2 15 -4 15 -2 0 -11 2 -18 5
-10 4 -13 -2 -13 -21 1 -18 10 -31 30 -41 20 -11 24 -17 15 -23 -9 -6 -6 -10
9 -15 30 -9 33 -5 36 55 2 42 -1 53 -18 65 -24 17 -37 19 -37 6z"/>
<path d="M3506 6609 c3 -5 12 -9 21 -9 19 0 9 13 -12 16 -8 1 -13 -2 -9 -7z"/>
<path d="M3477 6564 c-14 -14 -31 -23 -37 -19 -5 3 -10 1 -10 -4 0 -6 7 -11
15 -11 9 0 18 -7 22 -16 5 -13 7 -13 14 -2 5 7 9 23 9 35 0 12 6 23 13 26 6 2
9 7 6 11 -3 3 -18 -5 -32 -20z"/>
<path d="M3565 6497 c1 -17 7 -33 13 -35 7 -2 10 3 6 12 -3 9 -1 22 5 30 9 11
7 15 -7 18 -15 4 -18 0 -17 -25z"/>
<path d="M3415 6507 c-4 -10 -5 -21 -1 -24 10 -10 18 4 13 24 -4 17 -4 17 -12
0z"/>
<path d="M3520 6486 c0 -9 5 -16 10 -16 6 0 10 4 10 9 0 6 -4 13 -10 16 -5 3
-10 -1 -10 -9z"/>
<path d="M3625 6470 c-3 -5 1 -10 10 -10 9 0 13 5 10 10 -3 6 -8 10 -10 10 -2
0 -7 -4 -10 -10z"/>
<path d="M3400 6459 c0 -5 5 -7 10 -4 6 3 10 8 10 11 0 2 -4 4 -10 4 -5 0 -10
-5 -10 -11z"/>
<path d="M3525 6379 c8 -37 21 -56 31 -46 10 10 -9 70 -25 75 -10 3 -11 -3 -6
-29z"/>
<path d="M3457 6366 c-3 -8 1 -13 11 -12 11 1 17 -7 18 -21 1 -24 21 -53 35
-53 10 0 1 23 -26 68 -21 35 -30 39 -38 18z"/>
<path d="M3430 6310 c0 -5 5 -10 11 -10 5 0 7 5 4 10 -3 6 -8 10 -11 10 -2 0
-4 -4 -4 -10z"/>
<path d="M3560 6250 c0 -13 28 -25 38 -16 3 4 0 11 -8 16 -20 13 -30 12 -30 0z"/>
<path d="M3430 6191 c0 -5 5 -13 10 -16 6 -3 10 -2 10 4 0 5 -4 13 -10 16 -5
3 -10 2 -10 -4z"/>
<path d="M3520 6151 c0 -5 4 -12 9 -15 12 -8 1 -58 -13 -53 -6 2 -11 12 -11
21 0 10 -8 22 -17 27 -15 8 -16 6 -8 -23 6 -17 14 -35 20 -38 7 -5 8 -15 1
-32 -10 -25 -6 -38 11 -38 4 0 8 13 8 28 0 15 5 33 10 38 6 6 14 25 19 42 8
27 7 34 -10 42 -12 7 -19 7 -19 1z"/>
<path d="M3387 6110 c7 -25 23 -37 23 -17 0 8 -6 20 -14 26 -12 10 -13 8 -9
-9z"/>
<path d="M3600 6100 c0 -5 5 -10 11 -10 5 0 7 5 4 10 -3 6 -8 10 -11 10 -2 0
-4 -4 -4 -10z"/>
<path d="M3572 6043 c3 -33 0 -38 -16 -35 -13 3 -17 -1 -13 -12 3 -8 2 -28 -3
-45 -12 -42 -4 -65 31 -85 31 -18 38 -36 14 -36 -8 0 -15 5 -15 12 0 6 -2 9
-5 6 -8 -8 13 -58 25 -58 5 0 10 7 10 15 0 8 5 15 10 15 19 0 10 37 -15 58
-29 25 -32 59 -9 104 21 41 24 86 6 93 -22 8 -23 7 -20 -32z"/>
<path d="M3440 6051 c0 -5 7 -12 16 -15 14 -5 15 -4 4 9 -14 17 -20 19 -20 6z"/>
<path d="M3672 5778 c5 -15 28 -23 28 -10 0 5 -7 13 -16 16 -10 4 -14 1 -12
-6z"/>
<path d="M3570 5770 c0 -5 5 -10 11 -10 5 0 7 5 4 10 -3 6 -8 10 -11 10 -2 0
-4 -4 -4 -10z"/>
<path d="M3433 5677 c-9 -29 -8 -39 3 -48 22 -18 26 -6 17 42 l-8 43 -12 -37z"/>
<path d="M3500 5635 c0 -8 7 -15 16 -15 14 0 14 3 4 15 -7 8 -14 15 -16 15 -2
0 -4 -7 -4 -15z"/>
<path d="M3569 5578 c0 -13 -2 -36 -5 -53 -5 -35 3 -75 15 -75 4 0 6 12 3 26
-2 14 0 29 5 33 6 3 14 25 18 49 6 38 5 42 -14 42 -15 0 -21 -7 -22 -22z"/>
<path d="M3517 5574 c-9 -9 4 -35 14 -28 5 3 9 12 9 20 0 14 -12 19 -23 8z"/>
<path d="M3500 5531 c0 -5 5 -13 10 -16 6 -3 10 -2 10 4 0 5 -4 13 -10 16 -5
3 -10 2 -10 -4z"/>
<path d="M3602 5488 c6 -18 28 -21 28 -4 0 9 -7 16 -16 16 -9 0 -14 -5 -12
-12z"/>
<path d="M3387 5443 c-4 -3 -7 -11 -7 -17 0 -6 5 -5 12 2 6 6 9 14 7 17 -3 3
-9 2 -12 -2z"/>
<path d="M3550 5411 c0 -6 4 -13 10 -16 6 -3 7 1 4 9 -7 18 -14 21 -14 7z"/>
<path d="M3497 5403 c-3 -5 3 -20 14 -33 12 -17 19 -20 18 -10 0 20 -26 54
-32 43z"/>
<path d="M3562 5348 c2 -12 8 -23 14 -25 7 -2 10 6 7 22 -6 30 -26 34 -21 3z"/>
<path d="M3549 5306 c9 -11 9 -20 2 -35 -14 -25 -14 -51 -1 -51 6 0 13 8 16
18 3 9 9 24 14 33 6 11 2 21 -11 33 -24 20 -36 21 -20 2z"/>
<path d="M3443 5267 c4 -10 7 -41 7 -68 0 -36 4 -49 14 -49 8 0 17 -6 20 -12
3 -7 4 -4 1 7 -2 11 -7 41 -11 67 -3 26 -13 53 -22 60 -13 11 -15 10 -9 -5z"/>
<path d="M3480 5243 c0 -5 5 -15 10 -23 8 -12 10 -11 10 8 0 12 -4 22 -10 22
-5 0 -10 -3 -10 -7z"/>
<path d="M3530 5187 c0 -9 -4 -17 -10 -17 -6 0 -5 -10 2 -25 6 -14 15 -25 20
-25 12 0 10 14 -4 28 -10 10 -10 15 2 22 12 7 12 12 2 22 -9 9 -12 9 -12 -5z"/>
<path d="M3480 5105 c0 -8 5 -15 10 -15 6 0 10 7 10 15 0 8 -4 15 -10 15 -5 0
-10 -7 -10 -15z"/>
<path d="M3370 5101 c0 -6 5 -13 10 -16 6 -3 10 1 10 9 0 9 -4 16 -10 16 -5 0
-10 -4 -10 -9z"/>
<path d="M3452 5089 c2 -7 10 -15 17 -17 8 -3 12 1 9 9 -2 7 -10 15 -17 17 -8
3 -12 -1 -9 -9z"/>
<path d="M3509 5051 c7 -5 14 -24 15 -42 2 -35 29 -53 39 -26 8 20 -29 77 -50
77 -14 0 -15 -2 -4 -9z"/>
<path d="M3502 4954 c10 -10 20 -15 24 -12 3 4 -5 12 -18 18 -22 12 -22 12 -6
-6z"/>
<path d="M3526 4884 c-5 -14 -4 -15 9 -4 17 14 19 20 6 20 -5 0 -12 -7 -15
-16z"/>
<path d="M3485 4670 c3 -5 8 -10 11 -10 2 0 4 5 4 10 0 6 -5 10 -11 10 -5 0
-7 -4 -4 -10z"/>
<path d="M3542 4645 c1 -11 0 -25 -4 -30 -4 -6 -4 -16 0 -22 5 -7 11 -3 19 12
8 19 8 28 -3 42 -14 17 -14 17 -12 -2z"/>
<path d="M3542 4550 c0 -14 4 -36 8 -50 8 -24 8 -24 8 5 0 17 -3 39 -8 50 -8
18 -9 18 -8 -5z"/>
<path d="M3473 4540 c1 -11 5 -20 9 -20 4 0 8 9 8 20 0 11 -4 20 -9 20 -6 0
-9 -9 -8 -20z"/>
<path d="M3463 4472 c10 -10 17 -26 17 -35 0 -9 5 -19 12 -23 8 -5 9 -2 5 10
-4 10 -10 29 -13 42 -3 13 -13 24 -22 24 -13 0 -13 -2 1 -18z"/>
<path d="M3544 4417 c-15 -17 6 -57 31 -57 17 0 17 2 5 10 -13 8 -12 10 4 10
17 0 17 2 4 22 -18 27 -30 31 -44 15z"/>
<path d="M3650 4376 c0 -8 -10 -16 -22 -19 -22 -3 -22 -4 -4 -12 13 -6 21 -5
24 3 5 15 32 16 32 2 0 -5 5 -10 10 -10 12 0 -21 49 -32 50 -5 0 -8 -6 -8 -14z"/>
<path d="M3455 4340 c10 -11 20 -18 23 -15 7 6 -18 35 -31 35 -5 0 -2 -9 8
-20z"/>
<path d="M3471 4293 c0 -4 4 -17 9 -28 8 -19 9 -19 9 2 1 12 -3 25 -9 28 -5 3
-10 3 -9 -2z"/>
<path d="M3535 4201 c-11 -19 57 -62 73 -46 4 4 -6 18 -23 31 -33 26 -41 29
-50 15z"/>
<path d="M3475 4180 c3 -5 8 -10 11 -10 2 0 4 5 4 10 0 6 -5 10 -11 10 -5 0
-7 -4 -4 -10z"/>
<path d="M3515 4120 c3 -5 8 -10 11 -10 2 0 4 5 4 10 0 6 -5 10 -11 10 -5 0
-7 -4 -4 -10z"/>
<path d="M3445 4090 c3 -5 8 -10 11 -10 2 0 4 5 4 10 0 6 -5 10 -11 10 -5 0
-7 -4 -4 -10z"/>
<path d="M3485 4030 c3 -5 8 -10 11 -10 2 0 4 5 4 10 0 6 -5 10 -11 10 -5 0
-7 -4 -4 -10z"/>
<path d="M3489 3885 c-5 -36 -3 -55 6 -57 14 -4 19 42 6 55 -6 6 -12 7 -12 2z"/>
<path d="M3452 3772 c-24 -48 -24 -52 -8 -52 10 0 16 9 16 25 0 31 23 33 38 3
6 -14 11 -17 11 -8 0 13 -32 60 -41 60 -1 0 -9 -12 -16 -28z"/>
<path d="M3496 3703 c-6 -14 -5 -15 5 -6 7 7 10 15 7 18 -3 3 -9 -2 -12 -12z"/>
<path d="M3540 3680 c0 -5 5 -10 10 -10 6 0 10 5 10 10 0 6 -4 10 -10 10 -5 0
-10 -4 -10 -10z"/>
<path d="M3451 3610 c2 -27 6 -50 11 -50 4 0 7 23 7 50 -1 28 -6 50 -11 50 -5
0 -8 -22 -7 -50z"/>
<path d="M3455 3520 c3 -5 8 -10 11 -10 2 0 4 5 4 10 0 6 -5 10 -11 10 -5 0
-7 -4 -4 -10z"/>
<path d="M3493 3496 c4 -10 7 -22 7 -27 0 -5 5 -9 11 -9 15 0 7 43 -10 48 -10
3 -12 0 -8 -12z"/>
<path d="M3436 3465 c-3 -8 -1 -15 4 -15 6 0 10 7 10 15 0 8 -2 15 -4 15 -2 0
-6 -7 -10 -15z"/>
<path d="M3486 3443 c-12 -12 -6 -33 9 -33 8 0 15 6 15 14 0 17 -14 28 -24 19z"/>
<path d="M3410 3388 c0 -18 18 -34 28 -24 3 4 -2 14 -11 23 -16 16 -17 16 -17
1z"/>
<path d="M3304 3109 c-17 -21 -27 -59 -15 -59 14 0 33 37 29 57 -3 14 -5 14
-14 2z"/>
<path d="M3415 3080 c3 -5 11 -10 16 -10 6 0 7 5 4 10 -3 6 -11 10 -16 10 -6
0 -7 -4 -4 -10z"/>
<path d="M3446 2995 c-3 -8 -1 -15 3 -15 5 0 11 7 15 15 3 8 1 15 -3 15 -5 0
-11 -7 -15 -15z"/>
<path d="M3305 2969 c-19 -36 -17 -40 13 -32 15 3 22 13 22 29 0 36 -18 38
-35 3z"/>
<path d="M3500 2989 c0 -5 5 -7 10 -4 6 3 10 8 10 11 0 2 -4 4 -10 4 -5 0 -10
-5 -10 -11z"/>
<path d="M3379 2888 c8 -11 9 -18 1 -23 -12 -8 -13 -25 -1 -25 18 0 21 34 4
49 -15 15 -16 15 -4 -1z"/>
<path d="M3390 2802 c0 -5 7 -13 16 -16 10 -4 14 -1 12 6 -5 15 -28 23 -28 10z"/>
<path d="M3206 2775 c4 -8 8 -15 10 -15 2 0 4 7 4 15 0 8 -4 15 -10 15 -5 0
-7 -7 -4 -15z"/>
<path d="M3420 2708 c0 -19 2 -20 10 -8 13 19 13 30 0 30 -5 0 -10 -10 -10
-22z"/>
<path d="M3182 2443 c-6 -10 -13 -34 -17 -53 -7 -31 -6 -33 9 -21 9 7 16 22
16 32 0 10 5 21 10 24 13 8 13 35 0 35 -5 0 -13 -8 -18 -17z"/>
<path d="M3052 2259 l-24 -29 23 0 c22 0 48 25 49 48 0 21 -24 12 -48 -19z"/>
<path d="M2985 2150 c-3 -5 -2 -10 4 -10 5 0 13 5 16 10 3 6 2 10 -4 10 -5 0
-13 -4 -16 -10z"/>
<path d="M17121 9408 c-1 -26 6 -44 22 -61 21 -23 67 -45 67 -32 0 16 -52 85
-64 85 -8 0 -17 10 -19 23 -3 14 -5 8 -6 -15z"/>
<path d="M17120 9319 c0 -11 4 -18 10 -14 5 3 7 12 3 20 -7 21 -13 19 -13 -6z"/>
<path d="M17323 9280 c0 -25 2 -35 4 -22 2 12 2 32 0 45 -2 12 -4 2 -4 -23z"/>
<path d="M17323 8960 c0 -47 2 -66 4 -42 2 23 2 61 0 85 -2 23 -4 4 -4 -43z"/>
<path d="M17110 8973 c1 -22 16 -30 40 -21 24 10 24 11 5 18 -26 11 -45 12
-45 3z"/>
<path d="M17322 8795 c0 -16 2 -22 5 -12 2 9 2 23 0 30 -3 6 -5 -1 -5 -18z"/>
<path d="M17323 8645 c0 -27 2 -38 4 -22 2 15 2 37 0 50 -2 12 -4 0 -4 -28z"/>
<path d="M17323 8515 c0 -27 2 -38 4 -22 2 15 2 37 0 50 -2 12 -4 0 -4 -28z"/>
<path d="M17323 8380 c0 -30 2 -43 4 -27 2 15 2 39 0 55 -2 15 -4 2 -4 -28z"/>
<path d="M17102 8338 c2 -6 10 -14 16 -16 7 -2 10 2 6 12 -7 18 -28 22 -22 4z"/>
<path d="M17322 7915 c0 -16 2 -22 5 -12 2 9 2 23 0 30 -3 6 -5 -1 -5 -18z"/>
<path d="M17323 7760 c0 -25 2 -35 4 -22 2 12 2 32 0 45 -2 12 -4 2 -4 -23z"/>
<path d="M17105 7690 c-3 -5 -1 -10 4 -10 6 0 11 5 11 10 0 6 -2 10 -4 10 -3
0 -8 -4 -11 -10z"/>
<path d="M17321 7684 c0 -11 3 -14 6 -6 3 7 2 16 -1 19 -3 4 -6 -2 -5 -13z"/>
<path d="M17113 7626 c12 -25 27 -26 27 -1 0 7 -7 16 -16 19 -23 9 -23 8 -11
-18z"/>
<path d="M17322 7505 c0 -16 2 -22 5 -12 2 9 2 23 0 30 -3 6 -5 -1 -5 -18z"/>
<path d="M17322 7420 c0 -19 2 -27 5 -17 2 9 2 25 0 35 -3 9 -5 1 -5 -18z"/>
<path d="M17323 7290 c0 -41 2 -58 4 -37 2 20 2 54 0 75 -2 20 -4 3 -4 -38z"/>
<path d="M17321 7144 c0 -11 3 -14 6 -6 3 7 2 16 -1 19 -3 4 -6 -2 -5 -13z"/>
<path d="M17323 7045 c0 -22 2 -30 4 -17 2 12 2 30 0 40 -3 9 -5 -1 -4 -23z"/>
<path d="M17322 6975 c0 -16 2 -22 5 -12 2 9 2 23 0 30 -3 6 -5 -1 -5 -18z"/>
<path d="M17230 6841 c0 -6 5 -13 10 -16 6 -3 10 1 10 9 0 9 -4 16 -10 16 -5
0 -10 -4 -10 -9z"/>
<path d="M17100 6791 c0 -12 29 -23 41 -15 18 10 9 24 -16 24 -14 0 -25 -4
-25 -9z"/>
<path d="M17322 6780 c0 -14 2 -19 5 -12 2 6 2 18 0 25 -3 6 -5 1 -5 -13z"/>
<path d="M17322 6705 c0 -16 2 -22 5 -12 2 9 2 23 0 30 -3 6 -5 -1 -5 -18z"/>
<path d="M17165 6700 c3 -5 8 -10 11 -10 2 0 4 5 4 10 0 6 -5 10 -11 10 -5 0
-7 -4 -4 -10z"/>
<path d="M17322 6605 c0 -16 2 -22 5 -12 2 9 2 23 0 30 -3 6 -5 -1 -5 -18z"/>
<path d="M17150 6489 c0 -11 5 -17 10 -14 6 3 10 13 10 21 0 8 -4 14 -10 14
-5 0 -10 -9 -10 -21z"/>
<path d="M17323 6475 c0 -22 2 -30 4 -17 2 12 2 30 0 40 -3 9 -5 -1 -4 -23z"/>
<path d="M17162 6418 c6 -18 28 -21 28 -4 0 9 -7 16 -16 16 -9 0 -14 -5 -12
-12z"/>
<path d="M17215 6321 c-3 -5 -1 -12 5 -16 5 -3 10 1 10 9 0 18 -6 21 -15 7z"/>
<path d="M17323 6060 c0 -25 2 -35 4 -22 2 12 2 32 0 45 -2 12 -4 2 -4 -23z"/>
<path d="M17257 6018 c11 -50 14 -54 24 -36 7 12 6 25 -1 38 -14 27 -29 25
-23 -2z"/>
<path d="M17187 5946 c-21 -16 -22 -36 -3 -36 8 0 18 9 21 21 9 27 4 30 -18
15z"/>
<path d="M17323 5850 c0 -30 2 -43 4 -27 2 15 2 39 0 55 -2 15 -4 2 -4 -28z"/>
<path d="M17322 5675 c0 -16 2 -22 5 -12 2 9 2 23 0 30 -3 6 -5 -1 -5 -18z"/>
<path d="M17168 5659 c-24 -26 -23 -30 10 -26 16 3 26 10 24 18 -6 24 -16 27
-34 8z"/>
<path d="M17323 5575 c0 -38 2 -53 4 -32 2 20 2 52 0 70 -2 17 -4 1 -4 -38z"/>
<path d="M17142 5493 c2 -10 13 -19 25 -21 17 -3 21 2 20 17 -1 15 -8 21 -25
21 -17 0 -23 -5 -20 -17z"/>
<path d="M17323 5260 c0 -30 2 -43 4 -27 2 15 2 39 0 55 -2 15 -4 2 -4 -28z"/>
<path d="M17080 5290 c0 -5 5 -10 10 -10 6 0 10 5 10 10 0 6 -4 10 -10 10 -5
0 -10 -4 -10 -10z"/>
<path d="M17160 5150 c0 -5 7 -10 16 -10 8 0 12 5 9 10 -3 6 -10 10 -16 10 -5
0 -9 -4 -9 -10z"/>
<path d="M17137 5143 c-8 -14 7 -38 26 -39 22 -2 21 2 -2 27 -10 11 -21 17
-24 12z"/>
<path d="M17323 4960 c0 -25 2 -35 4 -22 2 12 2 32 0 45 -2 12 -4 2 -4 -23z"/>
<path d="M17321 4834 c0 -11 3 -14 6 -6 3 7 2 16 -1 19 -3 4 -6 -2 -5 -13z"/>
<path d="M17324 4525 c0 -143 2 -200 3 -127 2 73 2 190 0 260 -1 70 -3 10 -3
-133z"/>
<path d="M17120 4660 c0 -5 7 -10 16 -10 8 0 12 5 9 10 -3 6 -10 10 -16 10 -5
0 -9 -4 -9 -10z"/>
<path d="M17120 4617 c0 -12 34 -47 45 -47 2 0 0 11 -7 24 -12 27 -38 43 -38
23z"/>
<path d="M17150 4470 c0 -5 5 -10 10 -10 6 0 10 5 10 10 0 6 -4 10 -10 10 -5
0 -10 -4 -10 -10z"/>
<path d="M17170 4341 c0 -5 7 -12 16 -15 14 -5 15 -4 4 9 -14 17 -20 19 -20 6z"/>
<path d="M17323 4205 c0 -27 2 -38 4 -22 2 15 2 37 0 50 -2 12 -4 0 -4 -28z"/>
<path d="M17323 4035 c0 -44 2 -61 4 -37 2 23 2 59 0 80 -2 20 -4 1 -4 -43z"/>
<path d="M17132 4071 c2 -7 7 -12 11 -12 12 1 9 15 -3 20 -7 2 -11 -2 -8 -8z"/>
<path d="M17180 3820 c0 -5 5 -10 10 -10 6 0 10 5 10 10 0 6 -4 10 -10 10 -5
0 -10 -4 -10 -10z"/>
<path d="M17323 3675 c0 -22 2 -30 4 -17 2 12 2 30 0 40 -3 9 -5 -1 -4 -23z"/>
<path d="M17165 3600 c-3 -5 1 -10 10 -10 9 0 13 5 10 10 -3 6 -8 10 -10 10
-2 0 -7 -4 -10 -10z"/>
<path d="M17324 3435 c0 -71 1 -99 3 -62 2 37 2 96 0 130 -2 34 -3 4 -3 -68z"/>
<path d="M17090 3510 c0 -5 5 -10 11 -10 5 0 7 5 4 10 -3 6 -8 10 -11 10 -2 0
-4 -4 -4 -10z"/>
<path d="M17287 3493 c-4 -3 -7 -11 -7 -17 0 -6 5 -5 12 2 6 6 9 14 7 17 -3 3
-9 2 -12 -2z"/>
<path d="M17080 3478 c5 -7 18 -24 28 -37 13 -16 21 -20 26 -13 4 7 -5 23 -20
37 -28 26 -53 35 -34 13z"/>
<path d="M17230 3452 c0 -5 7 -13 16 -16 10 -4 14 -1 12 6 -5 15 -28 23 -28
10z"/>
<path d="M17240 3400 c0 -5 5 -10 11 -10 5 0 7 5 4 10 -3 6 -8 10 -11 10 -2 0
-4 -4 -4 -10z"/>
<path d="M17170 3385 c0 -16 27 -32 37 -21 7 7 -16 36 -28 36 -5 0 -9 -7 -9
-15z"/>
<path d="M17117 3345 c-5 -10 0 -15 14 -15 12 0 19 5 17 12 -6 18 -25 20 -31
3z"/>
<path d="M17323 3200 c0 -47 2 -66 4 -42 2 23 2 61 0 85 -2 23 -4 4 -4 -43z"/>
<path d="M17324 2900 c0 -118 2 -167 3 -107 2 59 2 155 0 215 -1 59 -3 10 -3
-108z"/>
<path d="M17125 2880 c3 -5 10 -10 16 -10 5 0 9 5 9 10 0 6 -7 10 -16 10 -8 0
-12 -4 -9 -10z"/>
<path d="M17123 2830 c-1 -16 1 -18 17 -8 20 13 18 28 -3 28 -7 0 -13 -9 -14
-20z"/>
<path d="M3700 8691 c0 -6 5 -13 10 -16 6 -3 10 1 10 9 0 9 -4 16 -10 16 -5 0
-10 -4 -10 -9z"/>
<path d="M3770 7661 c0 -6 5 -13 10 -16 6 -3 10 1 10 9 0 9 -4 16 -10 16 -5 0
-10 -4 -10 -9z"/>
</g>
</svg>
